<svg width="14" height="14" viewBox="0 0 14 14" fill="none" xmlns="http://www.w3.org/2000/svg">
<path d="M5.10071 7.7237C5.10071 7.54833 4.95846 7.40625 4.78294 7.40625H3.67404C3.49872 7.40625 3.35645 7.54833 3.35645 7.7237V8.83246C3.35645 9.00806 3.49872 9.1502 3.67404 9.1502H4.78294C4.95846 9.1502 5.10071 9.00806 5.10071 8.83246V7.7237Z" fill="#848484"/>
<path d="M7.87204 7.7237C7.87204 7.54833 7.72976 7.40625 7.55458 7.40625H6.44553C6.27021 7.40625 6.12793 7.54833 6.12793 7.7237V8.83246C6.12793 9.00806 6.27021 9.1502 6.44553 9.1502H7.55458C7.72976 9.1502 7.87204 9.00806 7.87204 8.83246V7.7237Z" fill="#848484"/>
<path d="M10.6432 7.7237C10.6432 7.54833 10.5009 7.40625 10.3256 7.40625H9.2167C9.04118 7.40625 8.89893 7.54833 8.89893 7.7237V8.83246C8.89893 9.00806 9.04118 9.1502 9.2167 9.1502H10.3256C10.5009 9.1502 10.6432 9.00806 10.6432 8.83246V7.7237Z" fill="#848484"/>
<path d="M5.10071 10.4954C5.10071 10.3197 4.95846 10.1777 4.78294 10.1777H3.67404C3.49872 10.1777 3.35645 10.3197 3.35645 10.4954V11.6039C3.35645 11.7794 3.49872 11.9215 3.67404 11.9215H4.78294C4.95846 11.9215 5.10071 11.7794 5.10071 11.6039V10.4954Z" fill="#848484"/>
<path d="M7.87204 10.4954C7.87204 10.3197 7.72976 10.1777 7.55458 10.1777H6.44553C6.27021 10.1777 6.12793 10.3197 6.12793 10.4954V11.6039C6.12793 11.7794 6.27021 11.9215 6.44553 11.9215H7.55458C7.72976 11.9215 7.87204 11.7794 7.87204 11.6039V10.4954Z" fill="#848484"/>
<path d="M10.6432 10.4954C10.6432 10.3197 10.5009 10.1777 10.3257 10.1777H9.2167C9.04118 10.1777 8.89893 10.3197 8.89893 10.4954V11.6039C8.89893 11.7794 9.04118 11.9215 9.2167 11.9215H10.3257C10.5009 11.9215 10.6432 11.7794 10.6432 11.6039V10.4954Z" fill="#848484"/>
<path d="M12.6261 1.55881V3.25234C12.6261 4.0178 12.0052 4.63464 11.2398 4.63464H10.3653C9.59991 4.63464 8.97071 4.0178 8.97071 3.25234V1.55273H5.02898V3.25234C5.02898 4.0178 4.39981 4.63464 3.63452 4.63464H2.75982C1.99451 4.63464 1.37357 4.0178 1.37357 3.25234V1.55881C0.704674 1.57898 0.155029 2.13246 0.155029 2.81277V12.7377C0.155029 13.4308 0.716805 14 1.4099 14H12.5898C13.2818 14 13.8447 13.4296 13.8447 12.7377V2.81277C13.8447 2.13246 13.295 1.57898 12.6261 1.55881ZM12.22 12.1196C12.22 12.4191 11.9771 12.6621 11.6775 12.6621H2.29834C1.9987 12.6621 1.75584 12.4191 1.75584 12.1196V6.99305C1.75584 6.69341 1.99867 6.45041 2.29834 6.45041H11.6774C11.9771 6.45041 12.2199 6.69341 12.2199 6.99305L12.22 12.1196Z" fill="#848484"/>
<path d="M2.7567 3.72677H3.62173C3.8843 3.72677 4.09718 3.5142 4.09718 3.25163V0.475307C4.09718 0.212717 3.8843 0 3.62173 0H2.7567C2.49411 0 2.28125 0.212717 2.28125 0.475307V3.25163C2.28125 3.5142 2.49411 3.72677 2.7567 3.72677Z" fill="#848484"/>
<path d="M10.3543 3.72677H11.2194C11.4818 3.72677 11.6946 3.5142 11.6946 3.25163V0.475307C11.6947 0.212717 11.4818 0 11.2194 0H10.3543C10.0918 0 9.87891 0.212717 9.87891 0.475307V3.25163C9.87891 3.5142 10.0918 3.72677 10.3543 3.72677Z" fill="#848484"/>
</svg>
