<svg width="70" height="70" viewBox="0 0 70 70" fill="none" xmlns="http://www.w3.org/2000/svg">
<path d="M65.2376 60.4752C64.3347 60.4752 63.4897 60.7278 62.7694 61.1659L43.4984 41.8948C43.4649 41.8612 43.4293 41.8311 43.3929 41.8027C44.9028 39.9435 45.8099 37.5761 45.8099 35C45.8099 32.4272 44.9051 30.0628 43.3988 28.2047L56.5352 15.0683C57.9455 16.1423 59.7037 16.7819 61.6091 16.7819C66.2359 16.7819 70 13.0177 70 8.39093C70 3.76413 66.2359 0 61.6091 0C56.9823 0 53.2181 3.76413 53.2181 8.39093C53.2181 10.2964 53.8577 12.0545 54.9317 13.4646L41.7953 26.6011C39.9372 25.0949 37.5728 24.1901 35 24.1901C32.4272 24.1901 30.0628 25.0949 28.2047 26.6012L22.1386 20.5351C22.5767 19.8148 22.8294 18.9699 22.8294 18.067C22.8294 15.441 20.6929 13.3045 18.067 13.3045C15.441 13.3045 13.3045 15.441 13.3045 18.067C13.3045 20.6929 15.441 22.8294 18.067 22.8294C18.9699 22.8294 19.8148 22.5767 20.5351 22.1386L26.6012 28.2047C25.0949 30.0628 24.1901 32.4272 24.1901 35C24.1901 36.4593 24.4823 37.8511 25.0087 39.1223L10.5848 46.9352C9.4887 45.6028 7.82791 44.7516 5.97192 44.7516C2.67905 44.7516 0 47.4307 0 50.7235C0 54.0164 2.67905 56.6955 5.97192 56.6955C9.2648 56.6955 11.9438 54.0164 11.9438 50.7235C11.9438 50.0981 11.8468 49.495 11.6676 48.928L26.0922 41.1148C28.0431 43.9479 31.3075 45.8099 35 45.8099C35.4143 45.8099 35.8225 45.7842 36.2248 45.7386L37.728 52.5032C36.158 53.2826 35.0756 54.9024 35.0756 56.7711C35.0756 59.397 37.212 61.5335 39.838 61.5335C42.464 61.5335 44.6004 59.397 44.6004 56.7711C44.6004 54.1799 42.5199 52.0668 39.9419 52.0112L38.4385 45.246C39.6743 44.8302 40.8111 44.1983 41.8029 43.3929C41.8313 43.4293 41.8614 43.4649 41.8949 43.4984L61.1659 62.7694C60.7278 63.4897 60.4752 64.3347 60.4752 65.2376C60.4752 67.8636 62.6116 70 65.2376 70C67.8636 70 70 67.8636 70 65.2376C70 62.6116 67.8636 60.4752 65.2376 60.4752ZM5.97192 54.4276C3.92953 54.4276 2.26782 52.7659 2.26782 50.7235C2.26782 48.6811 3.92953 47.0194 5.97192 47.0194C8.01432 47.0194 9.67603 48.6811 9.67603 50.7235C9.67603 52.7659 8.01432 54.4276 5.97192 54.4276ZM42.3326 56.7711C42.3326 58.1466 41.2135 59.2657 39.838 59.2657C38.4625 59.2657 37.3434 58.1466 37.3434 56.7711C37.3434 55.3956 38.4625 54.2765 39.838 54.2765C41.2135 54.2765 42.3326 55.3956 42.3326 56.7711ZM61.6091 2.26782C64.9854 2.26782 67.7322 5.0146 67.7322 8.39093C67.7322 11.7673 64.9854 14.514 61.6091 14.514C58.2327 14.514 55.486 11.7673 55.486 8.39093C55.486 5.0146 58.2327 2.26782 61.6091 2.26782ZM15.5724 18.067C15.5724 16.6914 16.6914 15.5724 18.067 15.5724C19.4425 15.5724 20.5616 16.6914 20.5616 18.067C20.5616 19.4425 19.4425 20.5616 18.067 20.5616C16.6914 20.5616 15.5724 19.4425 15.5724 18.067ZM35 43.5421C30.2899 43.5421 26.4579 39.7101 26.4579 35C26.4579 30.2899 30.2899 26.4579 35 26.4579C39.7101 26.4579 43.5421 30.2899 43.5421 35C43.5421 39.7101 39.7101 43.5421 35 43.5421ZM65.2376 67.7322C63.8621 67.7322 62.743 66.6131 62.743 65.2376C62.743 63.8621 63.8621 62.743 65.2376 62.743C66.6131 62.743 67.7322 63.8621 67.7322 65.2376C67.7322 66.6131 66.6131 67.7322 65.2376 67.7322Z" fill="#BB669B"/>
<path d="M35.0001 29.0281C34.3739 29.0281 33.8662 29.5358 33.8662 30.162C33.8662 30.7882 34.3739 31.2959 35.0001 31.2959C37.0425 31.2959 38.7042 32.9576 38.7042 35C38.7042 35.6262 39.2119 36.1339 39.8381 36.1339C40.4644 36.1339 40.972 35.6262 40.972 35C40.972 31.7071 38.293 29.0281 35.0001 29.0281Z" fill="#BB669B"/>
<path d="M61.609 7.10583C62.3176 7.10583 62.8941 7.68231 62.8941 8.39093C62.8941 9.01715 63.4018 9.52483 64.028 9.52483C64.6542 9.52483 65.1619 9.01715 65.1619 8.39093C65.1619 6.43183 63.5681 4.83801 61.609 4.83801C60.9828 4.83801 60.4751 5.3457 60.4751 5.97192C60.4751 6.59814 60.9828 7.10583 61.609 7.10583Z" fill="#BB669B"/>
</svg>
