<svg width="70" height="70" viewBox="0 0 70 70" fill="none" xmlns="http://www.w3.org/2000/svg">
<path d="M63.4375 12.0312H43.657C43.7117 11.6605 43.75 11.2853 43.75 10.9047V2.1875C43.75 1.58375 43.2611 1.09375 42.6562 1.09375H38.2812C37.6764 1.09375 37.1875 1.58375 37.1875 2.1875V3.28125H32.8125V2.1875C32.8125 1.58375 32.3236 1.09375 31.7188 1.09375H27.3438C26.7389 1.09375 26.25 1.58375 26.25 2.1875V10.9047C26.25 11.2886 26.2872 11.6627 26.343 12.0312H6.5625C3.54703 12.0312 1.09375 14.4845 1.09375 17.5V50.3125C1.09375 53.328 3.54703 55.7812 6.5625 55.7812H26.25V62.3438H25.1562C23.3472 62.3438 21.875 63.8159 21.875 65.625V67.8125C21.875 68.4163 22.3639 68.9062 22.9688 68.9062H47.0312C47.6361 68.9062 48.125 68.4163 48.125 67.8125V65.625C48.125 63.8159 46.6528 62.3438 44.8438 62.3438H43.75V55.7812H63.4375C66.453 55.7812 68.9062 53.328 68.9062 50.3125V17.5C68.9062 14.4845 66.453 12.0312 63.4375 12.0312ZM39.375 3.28125H41.5625V10.9047C41.5625 12.1866 41.1097 13.4072 40.308 14.3795C39.7502 13.9005 39.1409 13.4816 38.4858 13.1359C39.0327 12.5497 39.375 11.7688 39.375 10.9047V3.28125ZM38.4858 30.5484C39.1409 30.2028 39.7502 29.7839 40.3069 29.3048C41.1097 30.2772 41.5625 31.4989 41.5625 32.7797V40.4688H39.375V32.7797C39.375 31.9156 39.0327 31.1347 38.4858 30.5484ZM37.1875 38.2812H32.8125V36.0938H37.1875V38.2812ZM36.0938 31.6859C36.6975 31.6859 37.1875 32.177 37.1875 32.7797V33.9062H32.8125V32.7797C32.8125 32.177 33.3025 31.6859 33.9062 31.6859C34.2814 31.6859 34.6511 31.6597 35.0164 31.6192C35.3719 31.6575 35.7328 31.6859 36.0938 31.6859ZM32.8125 9.84375H37.1875V10.9047C37.1875 11.5073 36.6975 11.9984 36.0938 11.9984C35.7328 11.9984 35.3719 12.0269 35.0164 12.0652C34.6511 12.0236 34.2814 11.9984 33.9062 11.9984C33.3025 11.9984 32.8125 11.5073 32.8125 10.9047V9.84375ZM37.1875 5.46875V7.65625H32.8125V5.46875H37.1875ZM28.4375 3.28125H30.625V10.9047C30.625 12.7137 32.0972 14.1859 33.9062 14.1859C38.127 14.1859 41.5625 17.6203 41.5625 21.8422C41.5625 26.0641 38.127 29.4984 33.9062 29.4984C32.0972 29.4984 30.625 30.9706 30.625 32.7797V40.4688H28.4375V32.7797C28.4375 29.7642 30.8908 27.3109 33.9062 27.3109C36.9217 27.3109 39.375 24.8577 39.375 21.8422C39.375 18.8267 36.9217 16.3734 33.9062 16.3734C30.8908 16.3734 28.4375 13.9202 28.4375 10.9047V3.28125ZM29.8659 17.3961C30.5036 17.7942 31.2025 18.0994 31.9473 18.2973C31.1227 19.262 30.625 20.5012 30.625 21.8422C30.625 23.1831 31.1227 24.4223 31.9473 25.387C31.2036 25.5839 30.5058 25.8891 29.8681 26.2872C28.945 24.9955 28.4375 23.4511 28.4375 21.8422C28.4375 20.2377 28.9428 18.6878 29.8659 17.3961ZM34.9945 24.9233C33.6995 24.4617 32.8125 23.24 32.8125 21.8422C32.8125 20.4433 33.6995 19.2227 34.9956 18.7611C36.2677 19.2117 37.1875 20.4159 37.1875 21.8422C37.1875 23.2673 36.2677 24.4716 34.9945 24.9233ZM6.5625 14.2188H27.0156C27.3252 14.8608 27.7211 15.4514 28.1892 15.9786C26.9336 17.6684 26.25 19.7192 26.25 21.8422C26.25 23.9706 26.9358 26.0138 28.1903 27.7036C26.9872 29.0555 26.25 30.8306 26.25 32.7797V41.5625C26.25 42.1662 26.7389 42.6562 27.3438 42.6562H31.7188C32.3236 42.6562 32.8125 42.1662 32.8125 41.5625V40.4688H37.1875V41.5625C37.1875 42.1662 37.6764 42.6562 38.2812 42.6562H42.6562C43.2611 42.6562 43.75 42.1662 43.75 41.5625V32.7797C43.75 30.8875 43.0467 29.0872 41.8042 27.6927C43.0205 26.0542 43.75 24.0341 43.75 21.8422C43.75 19.6503 43.0205 17.6291 41.8042 15.9917C42.2833 15.4547 42.6825 14.8597 42.9909 14.2188H63.4375C65.2466 14.2188 66.7188 15.6909 66.7188 17.5V44.8438H3.28125V17.5C3.28125 15.6909 4.75344 14.2188 6.5625 14.2188ZM45.9375 65.625V66.7188H24.0625V65.625C24.0625 65.0223 24.5525 64.5312 25.1562 64.5312H44.8438C45.4475 64.5312 45.9375 65.0223 45.9375 65.625ZM41.5625 62.3438H28.4375V55.7812H41.5625V62.3438ZM63.4375 53.5938H6.5625C4.75344 53.5938 3.28125 52.1216 3.28125 50.3125V47.0312H66.7188V50.3125C66.7188 52.1216 65.2466 53.5938 63.4375 53.5938Z" fill="#252525"/>
<path d="M61.25 49.2188H63.4375V51.4062H61.25V49.2188Z" fill="#252525"/>
<path d="M56.875 49.2188H59.0625V51.4062H56.875V49.2188Z" fill="#252525"/>
<path d="M52.5 49.2188H54.6875V51.4062H52.5V49.2188Z" fill="#252525"/>
<path d="M8.75 22.9688C9.25531 22.9688 9.72781 22.8452 10.1555 22.6395L15.9316 28.4156C15.5477 29.0675 15.3125 29.8156 15.3125 30.625C15.3125 31.4344 15.5477 32.1825 15.9327 32.8333L12.3441 36.4219C11.9153 36.2173 11.4428 36.0938 10.9375 36.0938C9.12844 36.0938 7.65625 37.5659 7.65625 39.375C7.65625 41.1841 9.12844 42.6562 10.9375 42.6562C12.7466 42.6562 14.2188 41.1841 14.2188 39.375C14.2188 38.8697 14.0952 38.3972 13.8895 37.9695L17.4781 34.3809C18.13 34.7648 18.8781 35 19.6875 35C22.1003 35 24.0625 33.0378 24.0625 30.625C24.0625 28.2122 22.1003 26.25 19.6875 26.25C18.8781 26.25 18.13 26.4852 17.4792 26.8702L11.7031 21.0941C11.9077 20.6653 12.0312 20.1928 12.0312 19.6875C12.0312 17.8784 10.5591 16.4062 8.75 16.4062C6.94094 16.4062 5.46875 17.8784 5.46875 19.6875C5.46875 21.4966 6.94094 22.9688 8.75 22.9688ZM10.9375 40.4688C10.3338 40.4688 9.84375 39.9777 9.84375 39.375C9.84375 38.7723 10.3338 38.2812 10.9375 38.2812C11.5412 38.2812 12.0312 38.7723 12.0312 39.375C12.0312 39.9777 11.5412 40.4688 10.9375 40.4688ZM21.875 30.625C21.875 31.8314 20.8939 32.8125 19.6875 32.8125C18.4811 32.8125 17.5 31.8314 17.5 30.625C17.5 29.4186 18.4811 28.4375 19.6875 28.4375C20.8939 28.4375 21.875 29.4186 21.875 30.625ZM8.75 18.5938C9.35375 18.5938 9.84375 19.0848 9.84375 19.6875C9.84375 20.2902 9.35375 20.7812 8.75 20.7812C8.14625 20.7812 7.65625 20.2902 7.65625 19.6875C7.65625 19.0848 8.14625 18.5938 8.75 18.5938Z" fill="#252525"/>
<path d="M50.3125 35C51.1219 35 51.87 34.7648 52.5208 34.3798L56.1094 37.9684C55.9048 38.3972 55.7812 38.8697 55.7812 39.375C55.7812 41.1841 57.2534 42.6562 59.0625 42.6562C60.8716 42.6562 62.3438 41.1841 62.3438 39.375C62.3438 37.5659 60.8716 36.0938 59.0625 36.0938C58.5572 36.0938 58.0847 36.2173 57.657 36.423L54.0684 32.8344C54.4523 32.1825 54.6875 31.4344 54.6875 30.625C54.6875 29.8156 54.4523 29.0675 54.0673 28.4167L59.8434 22.6406C60.2722 22.8452 60.7447 22.9688 61.25 22.9688C63.0591 22.9688 64.5312 21.4966 64.5312 19.6875C64.5312 17.8784 63.0591 16.4062 61.25 16.4062C59.4409 16.4062 57.9688 17.8784 57.9688 19.6875C57.9688 20.1928 58.0923 20.6653 58.298 21.093L52.5219 26.8691C51.87 26.4852 51.1219 26.25 50.3125 26.25C47.8997 26.25 45.9375 28.2122 45.9375 30.625C45.9375 33.0378 47.8997 35 50.3125 35ZM60.1562 39.375C60.1562 39.9777 59.6663 40.4688 59.0625 40.4688C58.4587 40.4688 57.9688 39.9777 57.9688 39.375C57.9688 38.7723 58.4587 38.2812 59.0625 38.2812C59.6663 38.2812 60.1562 38.7723 60.1562 39.375ZM61.25 18.5938C61.8538 18.5938 62.3438 19.0848 62.3438 19.6875C62.3438 20.2902 61.8538 20.7812 61.25 20.7812C60.6462 20.7812 60.1562 20.2902 60.1562 19.6875C60.1562 19.0848 60.6462 18.5938 61.25 18.5938ZM50.3125 28.4375C51.5189 28.4375 52.5 29.4186 52.5 30.625C52.5 31.8314 51.5189 32.8125 50.3125 32.8125C49.1061 32.8125 48.125 31.8314 48.125 30.625C48.125 29.4186 49.1061 28.4375 50.3125 28.4375Z" fill="#252525"/>
</svg>
