<svg width="70" height="70" viewBox="0 0 70 70" fill="none" xmlns="http://www.w3.org/2000/svg">
<path d="M2.03369 36.466C2.78831 36.466 3.40088 35.8481 3.40088 35.0929C3.41049 34.3383 2.80701 33.7177 2.05185 33.7076C2.04597 33.7076 2.03957 33.7076 2.03316 33.7076C1.28654 33.7076 0.676651 34.3079 0.666504 35.0566V35.1047C0.666504 35.8598 1.27853 36.466 2.03369 36.466Z" fill="#252525"/>
<path d="M30.3291 42.2509C33.7962 42.2263 36.6855 39.7312 37.3226 36.442H40.041C40.7961 36.442 41.4082 35.8299 41.4082 35.0748C41.4082 34.3196 40.7961 33.7076 40.041 33.7076H37.3226C36.6823 30.4018 33.7674 27.897 30.2773 27.897C30.2618 27.897 30.2469 27.8981 30.2314 27.8986C29.3897 26.0844 28.2276 24.4139 26.7728 22.9597L22.4203 18.6071L26.7728 14.2551C29.8907 11.1372 31.8277 6.19881 31.8277 1.36719C31.8277 0.61203 31.2157 0 30.4605 0C29.7054 0 29.0933 0.61203 29.0933 1.36719C29.0933 5.50026 27.4634 9.69795 24.839 12.3218L20.487 16.6738L18.1804 14.3672L22.5324 10.0152C24.9693 7.57828 25.834 3.83347 25.834 1.36719C25.834 0.61203 25.2219 0 24.4668 0C23.7122 0 23.0996 0.61203 23.0996 1.36719C23.0996 2.93518 22.667 4.94644 21.7271 6.58333H10.4996C9.35188 5.09651 8.7281 3.28125 8.7281 1.36719C8.7281 0.61203 8.11607 0 7.36092 0C6.60576 0 5.99373 0.61203 5.99373 1.36719C5.99373 4.38515 7.16599 7.21992 9.29527 9.34921L24.839 24.893C25.9071 25.9611 26.7873 27.1675 27.465 28.4717C26.4278 28.9149 25.5162 29.5964 24.7974 30.4461C24.2553 29.2696 23.5007 28.1678 22.5324 27.1996L6.98868 11.6558C4.24522 8.91235 2.73438 5.25887 2.73438 1.36719C2.73438 0.61203 2.12234 0 1.36719 0C0.61203 0 0 0.61203 0 1.36719C0 5.98892 1.7955 10.3297 5.05486 13.5891L10.0734 18.6076L5.72136 22.9597C3.77899 24.9015 2.36481 27.2049 1.51779 29.8047C1.28441 30.5225 1.67641 31.2942 2.39471 31.5281C2.53517 31.5735 2.67776 31.5954 2.81822 31.5954C3.39447 31.5954 3.93013 31.2285 4.11812 30.6512C4.83002 28.4647 6.0199 26.5277 7.65465 24.893L12.0067 20.5409L14.3133 22.8475L9.96124 27.1996C7.83249 29.3283 6.66023 32.1631 6.66023 35.181C6.66023 38.1995 7.83249 41.0343 9.96124 43.1631L19.5203 52.7222C19.5492 52.751 19.5796 52.7772 19.6101 52.8028C19.6619 52.8835 19.7222 52.9604 19.7932 53.0309L24.4406 57.6782C27.065 60.302 28.6949 64.4997 28.6949 68.6328C28.6949 69.388 29.3069 70 30.0621 70C30.8167 70 31.4293 69.388 31.4293 68.6328C31.4293 63.8012 29.4923 58.8628 26.3739 55.7449L22.4026 51.7731L26.7728 47.4035C28.2842 45.8916 29.48 44.1473 30.3291 42.2509ZM13.1309 9.3177H19.3628L16.2471 12.4334L13.1309 9.3177ZM34.7207 35.0748C34.7207 37.1677 33.2659 38.9259 31.315 39.3948C31.6536 38.0334 31.8277 36.6209 31.8277 35.181C31.8277 33.6611 31.6322 32.1722 31.2557 30.7414C33.2365 31.1884 34.7207 32.961 34.7207 35.0748ZM28.4904 31.0079C28.8872 32.3441 29.0933 33.7466 29.0933 35.181C29.0933 36.5488 28.9059 37.8866 28.5448 39.1662C26.9534 38.4895 25.8345 36.9103 25.8345 35.0748C25.834 33.26 26.9283 31.6974 28.4904 31.0079ZM12.9178 42.2525H19.5759L16.2471 45.5818L12.9178 42.2525ZM10.702 30.6314H21.7933C22.384 31.5687 22.7829 32.6101 22.972 33.7076H9.52278C9.7097 32.6315 10.1028 31.5852 10.702 30.6314ZM23.0083 36.442C22.8481 37.5346 22.4801 38.5755 21.9247 39.5181H10.5695C10.0056 38.559 9.64508 37.5127 9.487 36.442H23.0083ZM19.3633 27.897H13.1309L16.2471 24.7813L19.3633 27.897ZM20.487 49.8217L18.1804 47.5151L22.5324 43.1631C23.5397 42.1564 24.313 41.0039 24.8593 39.7745C25.5899 40.6151 26.5112 41.2853 27.5563 41.7152C26.8668 43.0872 25.9552 44.3535 24.839 45.4697L20.487 49.8217Z" fill="#252525"/>
<path d="M17.3879 55.2386C17.3393 55.1676 17.2848 55.0998 17.2218 55.0368L7.65466 45.4696C5.99641 43.8114 4.79692 41.8434 4.08876 39.6206C3.85965 38.9007 3.09007 38.5039 2.37123 38.733C1.65132 38.9622 1.25398 39.7312 1.48309 40.4506C2.31302 43.0568 3.77847 45.4606 5.72084 47.4035L10.0814 51.7635L6.10002 55.7449C2.98219 58.8627 1.04517 63.8012 1.04517 68.6328C1.04517 69.3879 1.6572 70 2.41235 70C3.16698 70 3.77954 69.3879 3.77954 68.6328C3.77954 64.4997 5.40948 60.302 8.03384 57.6782L12.0152 53.6968L14.3218 56.0034L10.3404 59.9848C7.90353 62.4217 7.03889 66.1665 7.03889 68.6328C7.03889 69.3879 7.65092 70 8.40608 70C9.16071 70 9.77327 69.3879 9.77327 68.6328C9.77327 67.099 10.1888 65.1438 11.086 63.5272H21.3207C21.3431 63.5272 21.3645 63.5245 21.3864 63.524C22.2852 65.1411 22.7012 67.0984 22.7012 68.6328C22.7012 69.3879 23.3132 70 24.0684 70C24.823 70 25.4356 69.3879 25.4356 68.6328C25.4356 66.1665 24.5709 62.4217 22.134 59.9848L17.3879 55.2386ZM16.237 57.9548L19.075 60.7928H13.3995L16.237 57.9548Z" fill="#252525"/>
<path d="M66.1532 35.0807L69.8168 28.735C70.0609 28.312 70.0609 27.7908 69.8168 27.3678L65.7585 20.3385C65.5139 19.9156 65.0626 19.6549 64.5745 19.6549H57.0641L53.4004 13.3093C53.1558 12.8863 52.7045 12.6257 52.2164 12.6257H44.0993C43.6111 12.6257 43.1599 12.8863 42.9153 13.3093L39.2516 19.6549H32.2913C31.5361 19.6549 30.9241 20.267 30.9241 21.0221C30.9241 21.7767 31.5361 22.3893 32.2913 22.3893H39.2516L42.9153 28.735C43.1599 29.158 43.6111 29.4186 44.0993 29.4186H51.457L54.8023 35.2131L51.6097 40.7433H44.0993C43.6111 40.7433 43.1593 41.0034 42.9153 41.4269L38.857 48.4561C38.6129 48.8791 38.6129 49.4003 38.857 49.8233L42.9153 56.8526C43.1593 57.2756 43.6111 57.5362 44.0993 57.5362H52.2159C52.7045 57.5362 53.1558 57.2756 53.3999 56.8526L57.0641 50.5069H64.574C65.0626 50.5069 65.5139 50.2463 65.758 49.8233L69.8168 42.7941C70.0609 42.3705 70.0609 41.8498 69.8168 41.4269L66.1532 35.0807ZM67.0541 28.0514L63.7852 33.7135H57.0945L53.81 28.0252L57.0641 22.3893H63.7846L67.0541 28.0514ZM41.6196 21.0221L44.8886 15.36H51.4271L54.696 21.0221L51.4271 26.6842H44.8886L41.6196 21.0221ZM51.4271 54.8018H44.8886L41.6196 49.1397L44.8886 43.4776H51.4271L54.696 49.1397L51.4271 54.8018ZM63.7852 47.7725H57.2472L53.9777 42.1105L57.2472 36.4478H63.7852L67.0541 42.1105L63.7852 47.7725Z" fill="#252525"/>
<path d="M45.1621 36.4425C45.5231 36.4425 45.8745 36.2962 46.1288 36.042C46.3846 35.7878 46.5293 35.4347 46.5293 35.0753C46.5293 34.7143 46.3846 34.3629 46.1288 34.1087C45.8745 33.8529 45.5221 33.7081 45.1621 33.7081C44.8027 33.7081 44.4502 33.8529 44.196 34.1087C43.9413 34.3629 43.7949 34.7143 43.7949 35.0753C43.7949 35.4347 43.9413 35.7878 44.196 36.042C44.4502 36.2962 44.8027 36.4425 45.1621 36.4425Z" fill="#252525"/>
</svg>
