<svg width="42" height="42" viewBox="0 0 42 42" fill="none" xmlns="http://www.w3.org/2000/svg">
<path d="M23.8185 35.4375L14.8751 21.6126V10.5C14.8751 10.0168 14.4834 9.625 14.0001 9.625H9.62513C9.14189 9.625 8.75011 10.0168 8.75011 10.5V21.637L0.596037 35.4988C0.205979 36.1618 0.000244143 36.917 0.000244143 37.6862C0.000162112 40.0686 1.93151 41.9999 4.31386 42H20.2476C21.0665 41.9998 21.8679 41.7632 22.5556 41.3187C24.5284 40.0433 25.0939 37.4103 23.8185 35.4375ZM20.2476 40.2501H4.31386C3.85522 40.2508 3.40471 40.1285 3.0094 39.8958C1.7891 39.1777 1.38198 37.6063 2.10008 36.3861L10.3794 22.3187C10.4585 22.1842 10.5002 22.0311 10.5002 21.8751V11.3751H13.1252V21.8751C13.1251 22.0436 13.1737 22.2086 13.2652 22.3502L22.3477 36.3878C22.6097 36.7926 22.7492 37.2644 22.7493 37.7467C22.7497 39.1288 21.6298 40.2496 20.2476 40.2501Z" fill="white"/>
<path d="M12.6044 25.4388L11.0959 24.5525L3.66624 37.1814C3.587 37.3161 3.54525 37.4696 3.54541 37.6259C3.5459 38.1091 3.93809 38.5005 4.42134 38.4999H10.4999V36.75H5.94999L12.6044 25.4388Z" fill="white"/>
<path d="M39.888 20.125H26.2503C24.3173 20.125 22.7502 21.692 22.7502 23.625V37.6251C22.7531 40.0401 24.7102 41.9972 27.1252 42H35.0002C37.4153 41.9972 39.3723 40.0401 39.3752 37.6251V25.7372L41.3824 23.7308C41.7776 23.335 41.9995 22.7986 41.9999 22.2393C42.0006 21.0723 41.055 20.1257 39.888 20.125ZM40.1444 22.4937L37.8816 24.7564C37.7176 24.9205 37.6253 25.143 37.6253 25.375V37.625C37.6253 39.0747 36.45 40.25 35.0003 40.25H27.1253C25.6756 40.25 24.5003 39.0747 24.5003 37.625V23.625C24.5003 22.6585 25.2838 21.8751 26.2503 21.8751H39.8881C39.9844 21.875 40.0768 21.9132 40.1449 21.9814C40.2861 22.123 40.286 22.3523 40.1444 22.4937Z" fill="white"/>
<path d="M34.1252 25.375V36.75H31.5002V38.5H35.0003C35.4835 38.5 35.8753 38.1082 35.8753 37.625V25.375H34.1252Z" fill="white"/>
<path d="M24.5002 12.6735V0.875027C24.5002 0.391781 24.1085 0 23.6253 0H17.5002C17.017 0 16.6252 0.391781 16.6252 0.875027V12.9221C15.5573 13.2508 14.5301 13.6991 13.5627 14.2582L14.4378 15.7728C15.4658 15.1792 16.5696 14.728 17.719 14.4314C18.1056 14.3316 18.3756 13.9828 18.3753 13.5836V1.74997H22.7502V13.3796C22.7504 13.7996 23.049 14.1603 23.4616 14.2389C26.5298 14.8254 29.2886 16.486 31.243 18.9228L32.6071 17.8273C30.5481 15.2613 27.6975 13.4491 24.5002 12.6735Z" fill="white"/>
<path d="M37.1877 12.25C35.4963 12.25 34.1252 13.6212 34.1252 15.3125C34.1252 17.0039 35.4964 18.3749 37.1877 18.3749C38.8791 18.3749 40.2502 17.0038 40.2502 15.3125C40.2502 13.6212 38.8791 12.25 37.1877 12.25ZM37.1877 16.6251C36.4628 16.6251 35.8752 16.0375 35.8752 15.3126C35.8752 14.5876 36.4628 14.0001 37.1877 14.0001C37.9126 14.0001 38.5002 14.5876 38.5002 15.3126C38.5002 16.0375 37.9126 16.6251 37.1877 16.6251Z" fill="white"/>
<path d="M34.1252 6.125C32.6755 6.125 31.5002 7.30026 31.5002 8.75C31.5002 10.1997 32.6755 11.375 34.1252 11.375C35.575 11.375 36.7502 10.1997 36.7502 8.75C36.7502 7.30026 35.575 6.125 34.1252 6.125ZM34.1252 9.62495C33.642 9.62495 33.2502 9.23317 33.2502 8.74992C33.2502 8.26667 33.642 7.87497 34.1252 7.87497C34.6085 7.87497 35.0003 8.26676 35.0003 8.75C35.0003 9.23325 34.6085 9.62495 34.1252 9.62495Z" fill="white"/>
<path d="M3.06272 7C1.37131 7 0.000244141 8.37115 0.000244141 10.0625C0.000244141 11.7539 1.37131 13.125 3.06272 13.125C4.75412 13.125 6.12519 11.7539 6.12519 10.0626C6.12519 8.37115 4.75412 7 3.06272 7ZM3.06272 11.3751C2.33781 11.3751 1.75022 10.7875 1.75022 10.0626C1.75022 9.33765 2.33781 8.75006 3.06272 8.75006C3.78763 8.75006 4.37522 9.33765 4.37522 10.0626C4.37522 10.7875 3.78763 11.3751 3.06272 11.3751Z" fill="white"/>
<path d="M7.00024 0.875C5.55051 0.875 4.37524 2.05026 4.37524 3.5C4.37524 4.94974 5.55051 6.125 7.00024 6.125C8.44998 6.125 9.62524 4.94974 9.62524 3.5C9.62524 2.05026 8.44998 0.875 7.00024 0.875ZM7.00024 4.37495C6.517 4.37495 6.12522 3.98316 6.12522 3.49992C6.12522 3.01675 6.517 2.62497 7.00024 2.62497C7.48349 2.62497 7.87527 3.01675 7.87527 3.5C7.87527 3.98325 7.48349 4.37495 7.00024 4.37495Z" fill="white"/>
<path d="M28.8752 25.375H26.2502V27.125H28.8752V25.375Z" fill="white"/>
<path d="M28.0002 28.875H26.2502V30.625H28.0002V28.875Z" fill="white"/>
<path d="M28.8752 32.375H26.2502V34.125H28.8752V32.375Z" fill="white"/>
<path d="M28.0002 35.875H26.2502V37.625H28.0002V35.875Z" fill="white"/>
<path d="M3.50022 15.75H1.75024V17.5H3.50022V15.75Z" fill="white"/>
<path d="M6.12522 20.125H4.37524V21.875H6.12522V20.125Z" fill="white"/>
<path d="M21 23.625H19.25V25.375H21V23.625Z" fill="white"/>
<path d="M19.2502 20.125H17.5002V21.875H19.2502V20.125Z" fill="white"/>
<path d="M18.375 16.625H16.625V18.375H18.375V16.625Z" fill="white"/>
<path d="M19.2502 35.875H17.5002V37.625H19.2502V35.875Z" fill="white"/>
<path d="M16.6252 32.375H14.8752V34.125H16.6252V32.375Z" fill="white"/>
</svg>
