<svg width="22" height="22" viewBox="0 0 22 22" fill="none" xmlns="http://www.w3.org/2000/svg">
<path d="M2.60973 15.2347C-0.870775 11.7541 -0.870705 6.09077 2.60973 2.61019C6.09031 -0.870389 11.7536 -0.870389 15.2341 2.61019C18.1869 5.56299 18.6341 9.95456 16.5769 13.3839C16.5769 13.3839 16.4292 13.6318 16.6287 13.8312C17.7673 14.9697 21.1832 18.3857 21.1832 18.3857C22.0897 19.2921 22.3055 20.5597 21.5016 21.3637L21.3632 21.502C20.5593 22.306 19.2917 22.0903 18.3852 21.1838C18.3852 21.1838 14.9766 17.775 13.8404 16.6389C13.6312 16.4298 13.3834 16.5775 13.3834 16.5775C9.9541 18.6346 5.56253 18.1875 2.60973 15.2347ZM13.5861 13.5866C16.1579 11.0148 16.1578 6.83025 13.586 4.25845C11.0142 1.68673 6.82965 1.68666 4.25793 4.25845C1.68614 6.83018 1.68614 11.0148 4.25793 13.5866C6.82972 16.1582 11.0142 16.1582 13.5861 13.5866Z" fill="#F3BDDF"/>
</svg>
