<svg width="42" height="42" viewBox="0 0 42 42" fill="none" xmlns="http://www.w3.org/2000/svg">
<g clip-path="url(#clip0)">
<path d="M8.38656 42H33.5842C35.9027 41.9978 37.7815 40.1189 37.7841 37.8005V8.40295C37.7815 6.0845 35.9027 4.20564 33.5842 4.2034H28.8387C28.4439 3.75996 27.8787 3.50523 27.285 3.50363H25.1271C24.7872 1.48123 23.0361 0 20.9855 0C18.9346 0 17.1839 1.48123 16.844 3.50363H14.6861C14.092 3.50523 13.5271 3.75996 13.1321 4.2034H8.38656C6.06811 4.20564 4.18925 6.0845 4.18701 8.40295V37.8005C4.18925 40.1189 6.06811 41.9978 8.38656 42ZM33.5842 31.501H28.6849C27.9117 31.501 27.285 32.1277 27.285 32.9008V37.8005H9.08665C8.69992 37.8005 8.38656 37.4871 8.38656 37.1004V9.10304C8.38656 8.71631 8.69992 8.40295 9.08665 8.40295H12.5861C12.5861 9.56282 13.5265 10.5029 14.6861 10.5029H27.285C28.4446 10.5029 29.3846 9.56282 29.3846 8.40295H32.8844C33.2708 8.40295 33.5842 8.71631 33.5842 9.10304V31.501ZM32.5945 32.9008L28.6849 36.8107V32.9008H32.5945ZM14.6861 4.90348H17.4858C17.8725 4.90348 18.1858 4.59013 18.1858 4.2034C18.1858 2.65712 19.4393 1.4037 20.9855 1.4037C22.5318 1.4037 23.7852 2.65712 23.7852 4.2034C23.7852 4.59013 24.0986 4.90348 24.485 4.90348H27.285C27.6714 4.90348 27.9848 5.21684 27.9848 5.60325V8.40295C27.9848 8.78968 27.6714 9.10304 27.285 9.10304H14.6861C14.2993 9.10304 13.986 8.78968 13.986 8.40295V5.60325C13.986 5.21684 14.2993 4.90348 14.6861 4.90348ZM5.58686 8.40295C5.58686 6.85668 6.84029 5.60325 8.38656 5.60325H12.5861V7.0031H9.08665C7.92678 7.0031 6.98671 7.94317 6.98671 9.10304V37.1004C6.98671 38.2602 7.92678 39.2003 9.08665 39.2003H27.4052C27.6945 39.1994 27.9806 39.1385 28.2453 39.0212C28.2584 39.0161 28.269 39.0078 28.2815 39.0023C28.5071 38.8991 28.7124 38.7569 28.8883 38.5823L34.3676 33.103C34.5403 32.9277 34.6806 32.7236 34.7825 32.4997C34.7896 32.4849 34.7989 32.4731 34.8043 32.4583C34.9213 32.194 34.9821 31.9079 34.9828 31.6186V9.10304C34.9828 7.94317 34.0427 7.0031 32.8828 7.0031H29.3846V5.60325H33.5842C35.1305 5.60325 36.3839 6.85668 36.3839 8.40295V37.8005C36.3839 39.3467 35.1305 40.6002 33.5842 40.6002H8.38656C6.84029 40.6002 5.58686 39.3467 5.58686 37.8005V8.40295Z" fill="white"/>
<path d="M17.4857 7.70332H24.4849C24.8716 7.70332 25.185 7.38996 25.185 7.00323C25.185 6.61682 24.8716 6.30347 24.4849 6.30347H17.4857C17.0992 6.30347 16.7859 6.61682 16.7859 7.00323C16.7859 7.38996 17.0992 7.70332 17.4857 7.70332Z" fill="white"/>
<path d="M16.0861 18.2022C15.6997 18.2022 15.386 18.5156 15.386 18.902V19.6021H11.1865V15.4025H13.2864C13.6728 15.4025 13.9862 15.0892 13.9862 14.7025C13.9862 14.316 13.6728 14.0027 13.2864 14.0027H11.1865C10.4133 14.0027 9.78662 14.6294 9.78662 15.4025V19.6021C9.78662 20.3752 10.4133 21.0019 11.1865 21.0019H15.386C16.1592 21.0019 16.7862 20.3752 16.7862 19.6021V18.902C16.7862 18.5156 16.4728 18.2022 16.0861 18.2022Z" fill="white"/>
<path d="M15.386 23.8015H11.1865C10.4133 23.8015 9.78662 24.4282 9.78662 25.2014V29.4009C9.78662 30.1741 10.4133 30.8008 11.1865 30.8008H15.386C16.1592 30.8008 16.7862 30.1741 16.7862 29.4009V25.2014C16.7862 24.4282 16.1592 23.8015 15.386 23.8015ZM11.1865 29.4009V25.2014H15.386V29.4009H11.1865Z" fill="white"/>
<path d="M18.8858 16.8024H22.3856C22.772 16.8024 23.0854 16.4891 23.0854 16.1024C23.0854 15.7159 22.772 15.4026 22.3856 15.4026H18.8858C18.4994 15.4026 18.186 15.7159 18.186 16.1024C18.186 16.4891 18.4994 16.8024 18.8858 16.8024Z" fill="white"/>
<path d="M31.4847 15.4026H25.1852C24.7985 15.4026 24.4851 15.7159 24.4851 16.1024C24.4851 16.4891 24.7985 16.8024 25.1852 16.8024H31.4847C31.8711 16.8024 32.1844 16.4891 32.1844 16.1024C32.1844 15.7159 31.8711 15.4026 31.4847 15.4026Z" fill="white"/>
<path d="M18.8858 19.6022H25.8851C26.2718 19.6022 26.5852 19.2889 26.5852 18.9022C26.5852 18.5157 26.2718 18.2024 25.8851 18.2024H18.8858C18.4994 18.2024 18.186 18.5157 18.186 18.9022C18.186 19.2889 18.4994 19.6022 18.8858 19.6022Z" fill="white"/>
<path d="M31.4847 18.2024H28.6849C28.2982 18.2024 27.9849 18.5157 27.9849 18.9022C27.9849 19.2889 28.2982 19.6022 28.6849 19.6022H31.4847C31.8711 19.6022 32.1844 19.2889 32.1844 18.9022C32.1844 18.5157 31.8711 18.2024 31.4847 18.2024Z" fill="white"/>
<path d="M18.8858 26.6013H22.3856C22.772 26.6013 23.0854 26.2879 23.0854 25.9015C23.0854 25.5148 22.772 25.2014 22.3856 25.2014H18.8858C18.4994 25.2014 18.186 25.5148 18.186 25.9015C18.186 26.2879 18.4994 26.6013 18.8858 26.6013Z" fill="white"/>
<path d="M31.4847 25.2014H25.1852C24.7985 25.2014 24.4851 25.5148 24.4851 25.9015C24.4851 26.2879 24.7985 26.6013 25.1852 26.6013H31.4847C31.8711 26.6013 32.1844 26.2879 32.1844 25.9015C32.1844 25.5148 31.8711 25.2014 31.4847 25.2014Z" fill="white"/>
<path d="M25.8851 28.0012H18.8858C18.4994 28.0012 18.186 28.3146 18.186 28.7013C18.186 29.0877 18.4994 29.4011 18.8858 29.4011H25.8851C26.2718 29.4011 26.5852 29.0877 26.5852 28.7013C26.5852 28.3146 26.2718 28.0012 25.8851 28.0012Z" fill="white"/>
<path d="M31.4847 28.0012H28.6849C28.2982 28.0012 27.9849 28.3146 27.9849 28.7013C27.9849 29.0877 28.2982 29.4011 28.6849 29.4011H31.4847C31.8711 29.4011 32.1844 29.0877 32.1844 28.7013C32.1844 28.3146 31.8711 28.0012 31.4847 28.0012Z" fill="white"/>
<path d="M16.9168 12.896L13.8967 17.1228L13.0812 16.3074C12.8066 16.0421 12.3699 16.0459 12.1001 16.316C11.83 16.5861 11.8262 17.0225 12.0915 17.2971L13.4913 18.697C13.6227 18.8283 13.8005 18.902 13.9861 18.902H14.0437C14.2488 18.885 14.4359 18.7783 14.5551 18.6111L18.0549 13.7114C18.2119 13.5086 18.2455 13.2363 18.1423 13.0014C18.0392 12.7666 17.8159 12.607 17.5602 12.5855C17.3048 12.5638 17.0578 12.6839 16.9168 12.8979V12.896Z" fill="white"/>
</g>
<defs>
<clipPath id="clip0">
<rect width="42" height="42" fill="white"/>
</clipPath>
</defs>
</svg>
