<svg width="281" height="472" viewBox="0 0 281 472" fill="none" xmlns="http://www.w3.org/2000/svg">
<g filter="url(#filter0_f)">
<path d="M125.414 92.652C110.678 92.652 96.7607 94.494 83.662 98.178C70.5633 101.862 56.032 107.797 40.068 115.984L14.28 46.602C30.244 36.3686 49.0733 28.5913 70.768 23.27C92.4627 17.5393 113.748 14.674 134.624 14.674C160.821 14.674 182.311 18.1533 199.094 25.112C216.286 32.0707 229.794 40.8713 239.618 51.514C249.442 62.1566 256.196 73.8227 259.88 86.512C263.973 99.2013 266.02 111.277 266.02 122.738C266.02 134.199 264.178 144.842 260.494 154.666C257.219 164.081 252.921 172.881 247.6 181.068C242.279 189.255 236.139 197.032 229.18 204.4C222.221 211.768 215.467 218.727 208.918 225.276C204.006 230.188 198.889 235.509 193.568 241.24C188.247 246.561 183.335 252.292 178.832 258.432C174.739 264.572 171.259 271.121 168.394 278.08C165.529 284.629 164.096 291.383 164.096 298.342C164.096 299.979 164.096 302.435 164.096 305.71C164.096 308.985 164.301 311.85 164.71 314.306H83.662C82.8433 310.213 82.2293 305.71 81.82 300.798C81.82 295.477 81.82 290.974 81.82 287.29C81.82 275.829 83.2527 265.595 86.118 256.59C88.9833 247.175 92.6673 238.579 97.17 230.802C102.082 222.615 107.608 215.043 113.748 208.084C119.888 201.125 126.233 194.371 132.782 187.822C142.197 178.407 150.793 169.197 158.57 160.192C166.347 150.777 170.236 140.135 170.236 128.264C170.236 118.44 166.347 110.049 158.57 103.09C151.202 96.1313 140.15 92.652 125.414 92.652ZM182.516 401.494C182.516 419.505 176.581 433.422 164.71 443.246C153.249 453.07 140.15 457.982 125.414 457.982C110.678 457.982 97.3747 453.07 85.504 443.246C74.0427 433.422 68.312 419.505 68.312 401.494C68.312 383.483 74.0427 369.566 85.504 359.742C97.3747 349.918 110.678 345.006 125.414 345.006C140.15 345.006 153.249 349.918 164.71 359.742C176.581 369.566 182.516 383.483 182.516 401.494Z" fill="#BB669B"/>
</g>
<defs>
<filter id="filter0_f" x="0.280273" y="0.673969" width="279.74" height="471.308" filterUnits="userSpaceOnUse" color-interpolation-filters="sRGB">
<feFlood flood-opacity="0" result="BackgroundImageFix"/>
<feBlend mode="normal" in="SourceGraphic" in2="BackgroundImageFix" result="shape"/>
<feGaussianBlur stdDeviation="7" result="effect1_foregroundBlur"/>
</filter>
</defs>
</svg>
