<svg width="16" height="16" viewBox="0 0 16 16" fill="none" xmlns="http://www.w3.org/2000/svg">
<g clip-path="url(#clip0)">
<path d="M15.5874 11.8058L13.5989 9.81684C13.0683 9.28628 12.1414 9.28537 11.6099 9.81684L11.2783 10.1484L15.256 14.1258L15.5874 13.7944C16.138 13.2437 16.1362 12.3536 15.5874 11.8058Z" fill="#BB669B"/>
<path d="M10.5973 10.7927C10.1789 11.1169 9.58197 11.104 9.19963 10.7208L5.26786 6.78628C4.88464 6.40307 4.87173 5.80569 5.19589 5.38829L1.22743 1.42004C-0.479787 3.41004 -0.413037 6.40857 1.47118 8.29278L7.69314 14.5175C9.50126 16.3255 12.463 16.5653 14.566 14.7611L10.5973 10.7927Z" fill="#BB669B"/>
<path d="M6.17139 2.38686L4.18286 0.397895C3.6523 -0.132667 2.72533 -0.133573 2.1939 0.397895L1.8623 0.729488L5.83992 4.70689L6.17139 4.37539C6.72195 3.82483 6.72014 2.9347 6.17139 2.38686Z" fill="#BB669B"/>
</g>
<defs>
<clipPath id="clip0">
<rect width="16" height="16" fill="white"/>
</clipPath>
</defs>
</svg>
