<?xml version="1.0" standalone="no"?>
<!DOCTYPE svg PUBLIC "-//W3C//DTD SVG 20010904//EN"
 "http://www.w3.org/TR/2001/REC-SVG-20010904/DTD/svg10.dtd">
<svg version="1.0" xmlns="http://www.w3.org/2000/svg"
 width="736.000000pt" height="736.000000pt" viewBox="0 0 736.000000 736.000000"
 preserveAspectRatio="xMidYMid meet">
<metadata>
Created by potrace 1.11, written by Peter Selinger 2001-2013
</metadata>
<g transform="translate(0.000000,736.000000) scale(0.100000,-0.100000)"
fill="#000000" stroke="none">
<path d="M1599 7219 c-59 -60 -90 -110 -130 -211 -42 -104 -78 -208 -72 -208
3 0 0 -6 -6 -14 -7 -8 -20 -43 -31 -78 -10 -34 -33 -110 -50 -168 -17 -58 -52
-174 -76 -259 -24 -85 -46 -156 -48 -158 -4 -4 -89 -29 -130 -38 -10 -2 -44
-12 -75 -21 -31 -9 -63 -17 -71 -19 -25 -5 -164 -43 -180 -49 -8 -3 -28 -8
-45 -11 -38 -8 -60 -13 -60 -15 0 -1 -7 -3 -15 -5 -8 -2 -24 -6 -35 -9 -257
-67 -262 -69 -355 -109 -155 -66 -178 -82 -204 -142 -16 -35 -14 -127 2 -133
7 -2 12 -10 12 -17 0 -25 72 -74 119 -81 48 -7 75 0 177 47 93 43 118 52 136
50 9 -1 36 3 60 10 24 6 51 13 61 15 15 2 60 16 222 64 17 5 68 21 115 35 47
14 99 30 116 35 49 16 56 13 50 -17 -4 -16 -9 -38 -11 -50 -3 -13 -7 -31 -9
-42 -2 -10 -7 -36 -11 -57 -8 -45 -13 -69 -15 -69 -1 0 -3 -13 -5 -30 -4 -35
-12 -84 -26 -143 -8 -38 -13 -64 -24 -149 -4 -27 -16 -100 -21 -128 -2 -11 -7
-44 -10 -74 -3 -30 -7 -62 -9 -70 -2 -9 -6 -45 -10 -81 -3 -36 -8 -76 -10 -90
-28 -183 -44 -675 -30 -920 8 -141 16 -249 21 -272 3 -13 7 -45 10 -73 6 -53
11 -90 14 -90 1 0 3 -16 5 -35 5 -49 18 -116 35 -191 6 -26 13 -55 15 -65 2
-11 4 -19 5 -19 1 0 3 -7 5 -15 16 -79 87 -304 115 -367 6 -13 15 -35 21 -50
6 -16 18 -40 25 -54 7 -14 11 -29 7 -33 -3 -3 -2 -6 4 -6 6 0 13 -9 16 -19 4
-17 96 -191 130 -246 18 -31 150 -218 162 -232 5 -6 26 -31 45 -54 69 -85 244
-254 325 -314 22 -17 45 -35 50 -41 15 -16 201 -137 263 -170 126 -68 173 -93
177 -93 4 -1 33 -13 120 -52 49 -22 232 -87 295 -105 102 -29 295 -76 330 -80
24 -3 47 -7 51 -10 4 -2 24 -6 45 -10 22 -3 50 -7 64 -10 14 -2 50 -7 80 -10
60 -7 85 -12 85 -14 0 -3 140 -15 310 -26 206 -14 646 -8 870 11 28 2 84 6
125 10 74 5 94 7 195 19 121 14 142 17 175 22 19 2 51 6 70 9 84 10 117 15
145 21 17 4 41 8 55 10 14 2 36 5 50 8 14 2 45 7 70 10 25 3 70 11 102 16 31
6 60 10 65 9 4 -1 15 0 23 4 33 12 60 15 66 6 3 -5 -2 -35 -11 -67 -10 -31
-19 -66 -21 -78 -2 -12 -10 -40 -18 -63 -9 -22 -13 -41 -9 -41 3 0 0 -7 -7
-15 -7 -8 -10 -15 -7 -15 3 0 -2 -21 -10 -48 -16 -53 -24 -80 -27 -102 -9 -50
-26 -104 -51 -165 -40 -94 -68 -192 -68 -231 2 -141 190 -208 294 -104 24 24
41 62 75 160 16 47 32 87 35 90 3 3 8 16 11 30 3 14 16 52 27 85 30 83 32 90
31 90 -1 0 4 14 10 30 6 17 13 41 15 55 8 47 26 131 51 232 3 13 7 34 10 48
15 73 45 185 53 193 5 5 15 10 22 11 17 4 62 14 114 27 22 6 49 12 60 14 11 2
20 4 20 5 0 1 11 3 25 5 14 1 46 8 73 14 26 6 64 14 85 17 20 3 46 7 57 9 71
11 94 15 130 21 66 10 77 12 140 29 58 15 294 90 325 102 8 4 17 7 20 8 140
42 191 112 161 221 -27 95 -114 137 -231 111 -19 -4 -50 -10 -68 -12 -18 -2
-38 -7 -44 -11 -7 -4 -21 -8 -32 -9 -32 -3 -76 -13 -181 -41 -53 -14 -104 -27
-113 -29 -9 -2 -60 -16 -112 -30 -52 -14 -104 -28 -115 -30 -11 -2 -20 -4 -20
-6 0 -1 -9 -3 -20 -5 -11 -2 -51 -12 -90 -22 -137 -38 -127 -38 -120 6 3 21 8
49 11 62 8 34 11 56 19 119 3 30 8 57 10 61 3 5 48 287 61 385 3 27 7 59 9 70
1 11 6 47 9 80 4 33 9 80 12 105 3 25 7 68 9 95 3 28 6 79 9 115 21 262 25
594 12 805 -4 66 -9 144 -9 172 -1 29 -4 53 -7 53 -3 0 -5 17 -5 38 0 20 -3
53 -6 72 -4 19 -10 60 -14 90 -4 30 -11 78 -17 105 -5 28 -12 66 -15 85 -3 19
-18 87 -34 150 -16 63 -32 124 -34 135 -41 175 -172 482 -292 685 -43 74 -132
201 -148 212 -6 5 -6 8 0 8 7 0 7 3 0 8 -5 4 -37 39 -70 77 -112 132 -250 260
-380 356 -33 24 -62 46 -65 49 -3 3 -14 10 -25 17 -11 7 -61 37 -112 67 -50
31 -96 56 -101 56 -6 0 -12 4 -14 8 -2 6 -139 70 -273 127 -33 15 -95 34 -110
36 -5 0 -14 4 -20 9 -8 6 -54 22 -107 36 -5 1 -9 2 -10 4 -2 1 -10 3 -18 5 -8
2 -42 11 -75 21 -33 9 -89 22 -125 30 -36 8 -74 17 -85 19 -11 3 -35 7 -54 10
-18 2 -41 7 -50 9 -9 3 -34 8 -56 10 -22 3 -56 8 -75 11 -56 8 -208 24 -305
32 -84 7 -758 11 -770 4 -5 -3 -23 -6 -40 -7 -54 -2 -225 -15 -248 -19 -12 -2
-49 -6 -82 -10 -33 -3 -73 -8 -90 -11 -16 -2 -52 -6 -79 -9 -26 -2 -56 -6 -65
-9 -9 -3 -38 -7 -66 -11 -84 -10 -118 -15 -170 -26 -27 -5 -63 -11 -80 -14
-16 -2 -66 -11 -110 -19 -44 -9 -91 -18 -105 -20 -14 -3 -25 -5 -25 -6 0 -1
-11 -3 -25 -4 -14 -2 -49 -7 -78 -11 l-52 -8 16 44 c8 24 17 51 19 60 5 22
119 383 144 453 11 32 31 72 44 90 45 60 114 210 116 253 3 60 -33 124 -86
152 -12 6 -54 11 -93 11 l-71 0 -60 -61z m2056 -1162 c33 -4 85 -9 115 -13 99
-9 134 -14 225 -30 50 -8 104 -17 120 -20 17 -3 50 -10 75 -15 25 -6 52 -12
60 -14 8 -1 35 -9 60 -16 25 -7 47 -13 50 -14 199 -55 443 -159 615 -260 22
-13 45 -28 52 -34 7 -6 16 -11 22 -11 5 0 11 -4 13 -8 2 -5 26 -23 53 -42 28
-18 54 -40 58 -47 4 -7 12 -13 17 -13 5 0 22 -12 38 -27 143 -137 172 -165
172 -169 0 -2 13 -17 29 -33 16 -16 42 -47 57 -68 16 -21 32 -40 35 -43 14
-12 109 -157 109 -167 0 -6 4 -13 9 -15 11 -4 143 -258 135 -258 -4 0 -2 -6 3
-12 5 -7 20 -40 32 -73 13 -33 27 -68 33 -79 5 -10 11 -26 13 -35 2 -9 14 -55
28 -101 30 -98 63 -229 71 -280 3 -19 8 -46 11 -60 14 -70 21 -112 30 -185 2
-22 7 -58 10 -80 3 -22 7 -74 10 -115 2 -41 5 -75 6 -75 8 0 12 -525 4 -660
-2 -38 -4 -70 -5 -70 -1 0 -3 -29 -5 -65 -6 -103 -12 -169 -30 -327 -14 -121
-16 -140 -22 -168 -3 -16 -7 -46 -9 -65 -3 -32 -11 -87 -20 -135 -2 -10 -6
-35 -9 -55 -3 -20 -7 -45 -9 -57 -3 -11 -7 -36 -10 -54 -3 -19 -8 -44 -10 -55
-2 -12 -7 -37 -10 -55 -3 -19 -8 -45 -11 -59 -17 -83 -35 -179 -39 -204 -6
-36 -7 -36 -48 -43 -42 -7 -63 -11 -63 -13 0 -1 -11 -3 -25 -5 -14 -2 -50 -9
-80 -15 -30 -5 -68 -12 -85 -15 -16 -2 -41 -7 -55 -10 -56 -11 -97 -18 -125
-20 -16 -2 -30 -4 -30 -5 0 -2 -25 -6 -90 -14 -27 -4 -57 -9 -65 -11 -8 -2
-42 -7 -75 -10 -33 -4 -73 -9 -90 -12 -16 -3 -41 -6 -55 -8 -14 -1 -50 -5 -80
-8 -114 -13 -159 -18 -216 -22 -32 -2 -93 -7 -134 -10 -325 -23 -719 -19 -980
11 -25 3 -61 7 -80 9 -57 6 -133 16 -160 21 -14 2 -38 7 -55 9 -33 6 -33 6
-120 24 -33 8 -67 15 -75 16 -8 2 -16 4 -17 5 -2 2 -11 3 -20 5 -10 1 -25 4
-33 7 -8 3 -51 16 -95 28 -44 12 -89 26 -100 30 -11 4 -42 16 -70 25 -46 16
-65 24 -150 60 -299 128 -558 316 -765 555 -25 28 -51 58 -57 65 -7 8 -13 18
-13 23 0 5 -9 17 -20 27 -11 10 -20 24 -20 32 0 7 -4 13 -8 13 -20 0 -189 316
-223 415 -7 22 -16 45 -20 50 -5 9 -47 133 -54 160 -8 36 -19 71 -24 80 -3 6
-6 15 -7 21 -1 7 -10 45 -19 85 -10 41 -19 84 -21 97 -5 29 -11 61 -18 92 -3
14 -7 43 -10 65 -3 22 -8 56 -11 75 -3 19 -8 60 -10 90 -3 30 -7 73 -10 95 -3
22 -7 92 -10 155 -3 63 -6 126 -8 140 -2 14 0 37 4 52 4 15 4 30 0 32 -4 3 -6
20 -5 38 1 18 5 96 8 173 5 135 13 256 22 340 2 22 6 65 9 95 3 30 8 71 10 90
2 19 7 58 10 85 4 28 8 57 10 65 2 8 7 40 10 70 4 30 8 57 10 60 2 3 6 30 10
60 4 30 15 97 25 149 11 51 19 96 18 100 0 3 1 8 2 11 2 7 7 30 14 70 4 19 9
42 11 50 2 8 6 26 9 40 3 14 8 36 11 50 3 14 7 36 9 50 3 14 7 32 10 40 3 8 8
27 11 43 18 96 18 95 59 103 15 2 78 15 139 29 130 28 121 26 302 60 77 15
154 29 170 30 17 2 44 6 60 9 17 3 48 8 70 11 22 4 67 10 100 15 61 9 114 16
195 24 25 3 68 8 95 11 67 8 144 15 233 19 40 2 74 5 77 8 7 7 631 2 700 -5z"/>
<path d="M4548 5045 c-2 -2 -28 -7 -58 -10 -30 -3 -63 -8 -72 -11 -9 -3 -25
-6 -35 -8 -205 -40 -431 -158 -580 -305 -71 -69 -163 -188 -163 -210 0 -6 -4
-11 -10 -11 -5 0 -10 -7 -10 -15 0 -8 -4 -15 -10 -15 -5 0 -9 -3 -8 -7 1 -7
-13 -41 -48 -118 -15 -34 -53 -171 -60 -218 -3 -18 -7 -48 -10 -67 -8 -49 -12
-303 -6 -314 3 -5 6 -23 7 -40 3 -50 32 -184 52 -236 3 -8 7 -22 9 -30 2 -8 7
-23 12 -35 49 -105 76 -161 81 -165 3 -3 23 -31 45 -63 38 -57 93 -118 153
-168 46 -40 166 -119 180 -119 7 0 13 -5 13 -10 0 -6 3 -9 8 -8 4 1 21 -5 37
-14 29 -15 135 -52 145 -51 3 1 12 -3 20 -7 13 -7 53 -16 115 -25 11 -2 20 -4
20 -5 0 -8 192 -23 290 -22 117 1 241 11 337 28 24 4 52 8 63 10 11 1 21 3 23
4 3 3 10 5 57 15 22 5 42 10 45 10 28 7 104 29 140 42 l45 15 0 542 0 541
-382 3 c-336 2 -383 0 -384 -13 0 -8 0 -58 0 -110 0 -52 0 -98 0 -103 1 -4
106 -7 234 -7 l232 0 2 -25 c1 -14 2 -36 3 -50 1 -14 1 -154 0 -311 l-1 -285
-35 -13 c-33 -12 -68 -20 -109 -26 -11 -2 -20 -4 -20 -5 0 -4 -100 -11 -192
-14 -94 -2 -146 1 -263 19 -104 16 -289 100 -353 159 -15 14 -30 26 -33 26 -9
0 -64 61 -64 70 0 6 -4 10 -8 10 -12 0 -67 79 -103 147 -38 73 -64 149 -86
253 -22 107 -22 339 1 445 20 98 65 219 97 266 10 14 16 29 12 33 -3 3 -1 6 5
6 6 0 19 14 27 31 20 38 131 149 188 187 49 33 187 105 187 98 0 -3 17 2 37
10 20 9 46 18 57 20 113 23 121 24 201 29 39 2 72 5 75 6 3 1 9 1 13 0 5 -1
55 -4 110 -7 56 -2 113 -7 127 -9 67 -12 92 -19 183 -47 53 -17 100 -29 103
-26 2 3 6 14 8 24 4 18 19 70 51 171 l13 42 -42 16 c-23 9 -51 18 -61 20 -11
2 -20 4 -20 5 0 2 -14 5 -53 14 -13 3 -31 7 -40 10 -9 3 -37 8 -62 11 -25 4
-56 9 -70 12 -29 6 -407 13 -412 8z"/>
<path d="M2542 4898 c-48 -26 -94 -50 -102 -54 -8 -3 -23 -9 -32 -14 -9 -5
-70 -37 -135 -71 -65 -34 -119 -63 -121 -64 -2 -2 1 -20 7 -41 6 -22 12 -48
14 -59 2 -11 10 -40 17 -65 7 -25 13 -48 12 -52 -1 -5 3 -8 9 -8 13 0 81 31
89 40 3 3 32 19 65 35 33 15 62 31 65 34 10 12 161 84 165 79 4 -4 5 -49 5
-163 0 -11 0 -36 -1 -55 -1 -19 -1 -42 0 -50 0 -8 0 -35 0 -60 0 -25 0 -51 0
-57 3 -29 3 -60 2 -93 -2 -55 -3 -134 -2 -147 3 -29 3 -60 2 -93 -2 -55 -3
-134 -2 -147 3 -29 3 -60 2 -93 -2 -55 -3 -134 -2 -147 3 -29 3 -60 2 -93 -2
-55 -3 -134 -2 -147 3 -29 3 -60 2 -93 -2 -55 -3 -134 -2 -147 3 -29 3 -60 2
-93 -2 -55 -3 -134 -2 -150 1 -8 1 -27 1 -41 l0 -26 147 1 148 1 0 1090 0
1090 -133 0 -132 1 -88 -48z"/>
</g>
</svg>
