<svg width="24" height="18" viewBox="0 0 24 18" fill="none" xmlns="http://www.w3.org/2000/svg">
<path d="M24 2.47622V9.74127C24 9.74127 22.4451 10.0476 22.1248 10.0879C21.8055 10.1281 20.802 10.4521 20.0748 9.75309C18.9533 8.67822 14.9686 4.71554 14.9686 4.71554C14.9686 4.71554 14.2816 4.04138 13.1784 4.62401C12.1658 5.15774 10.6647 5.93994 10.0377 6.24452C8.85244 6.87539 7.87006 5.87447 7.87006 5.11203C7.87006 4.52063 8.2391 4.11924 8.76663 3.82405C10.1963 2.95736 13.2096 1.26596 14.4647 0.599108C15.2276 0.193364 15.7772 0.158595 16.8246 1.04093C18.1145 2.12577 19.2624 3.11464 19.2624 3.11464C19.2624 3.11464 19.6369 3.42712 20.234 3.30126C21.7002 2.99125 24 2.47622 24 2.47622ZM8.13998 14.7861C8.33295 14.2904 8.26845 13.7359 7.89849 13.3554C7.56606 13.0152 7.0807 12.9255 6.61791 13.0315C6.74735 12.5725 6.67588 12.084 6.34166 11.7392C6.00821 11.3998 5.52377 11.3083 5.06103 11.4153C5.1895 10.957 5.11822 10.4685 4.78381 10.1247C4.26015 9.58762 3.35438 9.61067 2.75934 10.1779C2.16746 10.7458 1.7883 11.7748 2.31656 12.3805C2.84394 12.9832 3.44992 12.6165 3.91188 12.5112C3.78337 12.9696 3.3983 13.3959 3.87252 13.9958C4.3463 14.596 5.00583 14.2319 5.46828 14.1276C5.33933 14.5842 4.97106 15.0533 5.42707 15.6095C5.8872 16.1675 6.64082 15.8702 7.13857 15.7156C6.94647 16.2095 6.5353 16.7418 7.06356 17.3384C7.59099 17.9393 8.80988 17.6613 9.40525 17.0932C9.99902 16.5253 10.056 15.6251 9.53376 15.0863C9.1732 14.7166 8.63569 14.6306 8.13998 14.7861ZM19.0036 11.0064C14.6997 6.70247 16.7241 8.72771 14.4079 6.40655C14.4079 6.40655 13.7118 5.71355 12.7943 6.1161C12.1503 6.39832 11.3211 6.78295 10.6972 7.07659C10.0117 7.43609 9.51827 7.54737 9.28661 7.54582C7.96124 7.53715 6.88594 6.47187 6.88594 5.14782C6.88594 4.28887 7.34195 3.54106 8.02206 3.11658C8.97844 2.45476 11.1798 1.28387 11.1798 1.28387C11.1798 1.28387 10.5092 0.43408 9.04008 0.43408C7.57143 0.43408 4.503 2.44426 4.503 2.44426C4.503 2.44426 3.63253 3.00181 2.39166 2.49961L0 1.66676V9.98005C0 9.98005 0.682924 10.1777 1.29655 10.4284C1.43514 10.0331 1.65876 9.66815 1.96897 9.36671C2.98699 8.39707 4.67437 8.387 5.60057 9.34071C5.87959 9.63062 6.07431 9.97646 6.17367 10.3588C6.54688 10.474 6.88492 10.678 7.15658 10.9579C7.43642 11.2459 7.63041 11.5937 7.7306 11.9741C8.10337 12.0893 8.44093 12.2942 8.71351 12.5743C9.02047 12.8908 9.22497 13.2732 9.32046 13.6874C9.71012 13.8009 10.0623 14.0121 10.3459 14.3021C10.9025 14.8738 11.1001 15.6495 10.9804 16.3978C10.9814 16.3978 10.9832 16.3978 10.9841 16.3995C10.9932 16.4114 11.3289 16.7857 11.5383 16.9968C11.9487 17.4076 12.6187 17.4076 13.0303 16.9968C13.4392 16.5862 13.441 15.9175 13.0303 15.5048C13.0156 15.4902 11.5499 13.9571 11.6679 13.8382C11.7849 13.7201 13.6523 15.6632 13.6871 15.6987C14.0969 16.1086 14.7665 16.1086 15.1782 15.6987C15.5888 15.2881 15.588 14.6194 15.1782 14.2077C15.158 14.1885 15.074 14.108 15.0428 14.0759C15.0428 14.0759 13.1913 12.4266 13.3322 12.2857C13.4749 12.1439 15.7747 14.2901 15.7784 14.2901C16.1918 14.6624 16.8286 14.6596 17.2263 14.2617C17.6132 13.8748 17.6215 13.2628 17.2785 12.8503C17.2712 12.8284 15.5258 11.0044 15.662 10.8671C15.8002 10.7281 17.5273 12.5064 17.5309 12.5101C17.9398 12.9199 18.6103 12.9199 19.022 12.5101C19.4318 12.1002 19.4318 11.4307 19.022 11.0172C19.0164 11.0137 19.0091 11.01 19.0036 11.0064Z" fill="#BB669B"/>
</svg>
