<svg width="22" height="19" viewBox="0 0 22 19" fill="none" xmlns="http://www.w3.org/2000/svg">
<path d="M10.9929 0.0477295L1.17441 9.69789C1.11535 9.75554 1.05348 9.80898 0.989258 9.85914V15.9205C0.989258 17.608 2.36223 18.981 4.04973 18.981H17.9491C19.6366 18.981 21.0096 17.608 21.0096 15.9205V9.86945C20.9407 9.81648 20.8741 9.75976 20.8113 9.69789L10.9929 0.0477295ZM16.0647 12.4584C16.0647 12.8469 15.7497 13.1615 15.3616 13.1615H13.0994V15.4241C13.0994 15.8127 12.7844 16.1273 12.3963 16.1273H9.58988C9.20129 16.1273 8.88676 15.8127 8.88676 15.4241V13.1615H6.62363C6.23551 13.1615 5.92051 12.8469 5.92051 12.4584V9.65242C5.92051 9.26382 6.23551 8.94929 6.62363 8.94929H8.88676V6.68664C8.88676 6.29804 9.20129 5.98351 9.58988 5.98351H12.3963C12.7844 5.98351 13.0994 6.29804 13.0994 6.68664V8.94929H15.3616C15.7497 8.94929 16.0647 9.26382 16.0647 9.65242V12.4584Z" fill="#BB669B"/>
</svg>
