<svg width="6" height="6" viewBox="0 0 6 6" fill="none" xmlns="http://www.w3.org/2000/svg">
<path d="M5.95823 1.06686L5.16098 0.366228C5.13652 0.344593 5.10401 0.333591 5.07192 0.335865C5.03941 0.338016 5.00905 0.352952 4.98753 0.377476L2.09593 3.66863L1.06777 2.30776C1.04816 2.28182 1.01896 2.26467 0.986695 2.26024C0.954488 2.25545 0.921605 2.26418 0.895668 2.28391L0.0488246 2.92363C-0.00532465 2.96456 -0.0160808 3.04164 0.0248539 3.09579L1.92862 5.61557C1.95087 5.64501 1.98529 5.66296 2.02217 5.66431C2.02365 5.66431 2.02518 5.66431 2.02666 5.66431C2.06194 5.66431 2.09562 5.64919 2.11904 5.62251L5.96935 1.24031C6.01422 1.18936 6.00924 1.1116 5.95823 1.06686Z" fill="#BB669B"/>
</svg>
