<svg width="24" height="24" viewBox="0 0 24 24" fill="none" xmlns="http://www.w3.org/2000/svg">
<path d="M12 0C5.38331 0 0 5.38331 0 12C0 18.6167 5.38331 24 12 24C18.6167 24 24 18.6167 24 12C24 5.38331 18.6167 0 12 0ZM14 19.5C14 19.7764 13.7764 20 13.5 20H10.5C10.2236 20 9.99998 19.7764 9.99998 19.5V12H9.49997C9.22359 12 8.99995 11.7764 8.99995 11.5V9.49997C8.99995 9.22359 9.22359 8.99995 9.49997 8.99995H13.5C13.7764 8.99995 14 9.22359 14 9.49997V19.5ZM12 8.00002C10.897 8.00002 9.99998 7.10306 9.99998 6C9.99998 4.89694 10.897 3.99998 12 3.99998C13.103 3.99998 14 4.89694 14 6C14 7.10306 13.103 8.00002 12 8.00002Z" fill="#BB669B"/>
</svg>
