<svg width="70" height="70" viewBox="0 0 70 70" fill="none" xmlns="http://www.w3.org/2000/svg">
<g clip-path="url(#clip0)">
<path d="M44.0236 0.000671387C39.3752 0.000671387 34.8123 1.2452 30.8279 3.59958C30.1778 3.98375 29.9622 4.82209 30.3464 5.47218C30.7305 6.12226 31.5689 6.33772 32.219 5.95369C35.7823 3.84813 39.8643 2.73512 44.0236 2.73512C56.839 2.73512 67.2653 13.1613 67.2653 25.9768C67.2653 38.7923 56.839 49.2185 44.0236 49.2185C31.2081 49.2185 20.7819 38.7923 20.7819 25.9768C20.7819 21.8171 21.8947 17.7353 24 14.173C24.3842 13.523 24.1686 12.6846 23.5187 12.3004C22.8686 11.9163 22.0304 12.1317 21.6461 12.7818C19.2919 16.7652 18.0476 21.3279 18.0476 25.9768C18.0476 31.6615 19.8845 36.9243 22.9939 41.2061L20.6566 43.5436C20.1121 43.2841 19.5114 43.1468 18.8886 43.1468C18.8886 43.1468 18.8886 43.1468 18.8885 43.1468C17.7909 43.1468 16.7609 43.5723 15.9885 44.3447L1.19883 59.1341C-0.400194 60.7333 -0.400331 63.3352 1.19883 64.9345L5.0657 68.8014C5.83829 69.5738 6.8683 69.9994 7.96586 69.9994C9.06341 69.9994 10.0936 69.574 10.866 68.8015L25.6557 54.0119C26.4282 53.2394 26.8537 52.2094 26.8537 51.1117C26.8537 50.4891 26.7164 49.8884 26.4569 49.3439L28.7944 47.0064C33.0762 50.1158 38.3391 51.9527 44.0236 51.9527C58.3469 51.9527 69.9996 40.3 69.9996 25.9767C69.9996 11.6534 58.3469 0.000671387 44.0236 0.000671387ZM23.7222 52.0783L8.93271 66.868C8.39979 67.401 7.53233 67.401 6.99928 66.868L3.13241 63.0012C2.59935 62.4682 2.59935 61.6007 3.13241 61.0678L17.9219 46.2782C18.178 46.0221 18.5213 45.8811 18.8885 45.8811C19.2559 45.8811 19.5991 46.0222 19.8552 46.2783L23.7221 50.1452C23.9783 50.4012 24.1192 50.7445 24.1192 51.1119C24.1194 51.479 23.9783 51.8223 23.7222 52.0783ZM24.6889 47.2447L22.7555 45.3113L24.7237 43.3431C25.334 44.0208 25.9794 44.6661 26.6571 45.2766L24.6889 47.2447Z" fill="#252525"/>
<path d="M44.024 46.484C55.3317 46.484 64.5313 37.2844 64.5313 25.9767C64.5313 14.6689 55.3317 5.4693 44.024 5.4693C32.7162 5.4693 23.5166 14.6689 23.5166 25.9767C23.5166 37.2844 32.7161 46.484 44.024 46.484ZM44.024 8.20348C53.824 8.20348 61.797 16.1765 61.797 25.9765C61.797 35.7766 53.824 43.7496 44.024 43.7496C34.2239 43.7496 26.2509 35.7766 26.2509 25.9765C26.2509 16.1765 34.2238 8.20348 44.024 8.20348Z" fill="#252525"/>
<path d="M26.622 9.94298C26.994 9.94298 27.3646 9.79204 27.6345 9.49523C28.1424 8.93659 28.1013 8.07185 27.5425 7.56394C26.9837 7.05616 26.1191 7.09718 25.6112 7.65595L25.6105 7.65663C25.1026 8.21527 25.1442 9.0796 25.7028 9.58751C25.9647 9.82568 26.2938 9.94298 26.622 9.94298Z" fill="#252525"/>
<path d="M39.4692 27.0495C39.718 27.0806 39.9645 27.0959 40.2076 27.0959C41.3686 27.0959 42.4483 26.7447 43.3008 26.0914C43.8396 26.0934 44.1107 26.1634 44.3889 26.4415C44.7386 26.7912 44.7594 27.1282 44.7296 28.0021C44.6955 29.0008 44.6491 30.3687 45.8697 31.5891C47.0903 32.8097 48.4584 32.7634 49.4567 32.7292C50.3308 32.6992 50.6676 32.7203 51.0173 33.07C51.367 33.4197 51.3878 33.7566 51.358 34.6304C51.3323 35.385 51.9232 36.0175 52.6778 36.0432C52.6937 36.0437 52.7094 36.044 52.7253 36.044C53.4587 36.044 54.0656 35.4621 54.0908 34.7233C54.1248 33.7247 54.1713 32.357 52.9509 31.1366C51.7304 29.916 50.363 29.9629 49.3638 29.9965C48.49 30.0265 48.1531 30.0055 47.8032 29.6558C47.4535 29.306 47.4327 28.9691 47.4624 28.0951C47.4964 27.0964 47.5429 25.7285 46.3225 24.5081C45.8754 24.0609 45.4085 23.785 44.9472 23.615C45.1374 22.9305 45.1926 22.1866 45.0969 21.4217C44.9028 19.8694 44.1295 18.3482 42.9196 17.1382C41.7097 15.9283 40.1883 15.155 38.6362 14.9609C36.98 14.7539 35.4207 15.2454 34.3568 16.3092C32.2246 18.4414 32.5965 22.2827 35.1857 24.8721C36.3957 26.0822 37.9169 26.8555 39.4692 27.0495ZM36.2901 18.2428C36.6796 17.8533 37.2362 17.6479 37.8849 17.6479C38.0185 17.6479 38.1559 17.6565 38.2967 17.6742C39.235 17.7915 40.2151 18.3009 40.986 19.0717C41.757 19.8426 42.2664 20.8229 42.3837 21.761C42.4868 22.5853 42.2848 23.2978 41.8151 23.7676C41.3453 24.2375 40.6325 24.4391 39.8085 24.3362C38.8704 24.2189 37.8901 23.7095 37.1193 22.9386C35.6217 21.4412 35.2421 19.2908 36.2901 18.2428Z" fill="#252525"/>
<path d="M33.6287 32.5388H33.6298C34.3849 32.5388 34.9964 31.9267 34.9964 31.1716C34.9964 30.4165 34.3838 29.8044 33.6287 29.8044C32.8736 29.8044 32.2615 30.4165 32.2615 31.1716C32.2615 31.9267 32.8736 32.5388 33.6287 32.5388Z" fill="#252525"/>
<path d="M49.4876 17.7736H49.4885C50.2436 17.7736 50.8553 17.1615 50.8553 16.4064C50.8553 15.6513 50.2426 15.0392 49.4876 15.0392C48.7325 15.0392 48.1204 15.6513 48.1204 16.4064C48.1204 17.1615 48.7326 17.7736 49.4876 17.7736Z" fill="#252525"/>
<path d="M45.9331 37.5972C45.178 37.5972 44.5659 38.2093 44.5659 38.9644C44.5659 39.7195 45.178 40.3316 45.9331 40.3316H45.9342C46.6893 40.3316 47.3008 39.7195 47.3008 38.9644C47.3008 38.2093 46.6882 37.5972 45.9331 37.5972Z" fill="#252525"/>
<path d="M54.9563 25.5663H54.9573C55.7124 25.5663 56.324 24.9543 56.324 24.1992C56.324 23.4441 55.7114 22.832 54.9563 22.832C54.2012 22.832 53.5891 23.4441 53.5891 24.1992C53.5891 24.9543 54.2013 25.5663 54.9563 25.5663Z" fill="#252525"/>
</g>
<defs>
<clipPath id="clip0">
<rect width="70" height="70" fill="white"/>
</clipPath>
</defs>
</svg>
