<svg width="16" height="16" viewBox="0 0 16 16" fill="none" xmlns="http://www.w3.org/2000/svg">
<g clip-path="url(#clip0)">
<path d="M14.5937 1.90625H1.40618C1.18971 1.90625 0.987055 1.95947 0.803711 2.04719L7.96868 9.21216L9.57459 7.66881C9.57459 7.66881 9.57471 7.66866 9.57474 7.66859C9.57477 7.66853 9.5749 7.66847 9.5749 7.66847L15.1964 2.04731C15.013 1.95953 14.8102 1.90625 14.5937 1.90625Z" fill="#BB669B"/>
<path d="M15.8594 2.71021L10.5693 8.00002L15.8592 13.2899C15.947 13.1066 16.0002 12.9039 16.0002 12.6875V3.31246C16.0002 3.09611 15.9471 2.89349 15.8594 2.71021Z" fill="#BB669B"/>
<path d="M0.140938 2.71008C0.0532188 2.89343 0 3.09608 0 3.31255V12.6876C0 12.9039 0.0531562 13.1066 0.140813 13.2899L5.43091 8.00005L0.140938 2.71008Z" fill="#BB669B"/>
<path d="M9.90646 8.6629L8.30034 10.2064C8.20877 10.298 8.08884 10.3438 7.96893 10.3438C7.84902 10.3438 7.72905 10.298 7.63752 10.2064L6.0939 8.66284L0.803711 13.9527C0.987086 14.0405 1.18987 14.0937 1.4064 14.0937H14.5939C14.8104 14.0937 15.013 14.0405 15.1964 13.9528L9.90646 8.6629Z" fill="#BB669B"/>
</g>
<defs>
<clipPath id="clip0">
<rect width="16" height="16" fill="white"/>
</clipPath>
</defs>
</svg>
