<svg width="42" height="42" viewBox="0 0 42 42" fill="none" xmlns="http://www.w3.org/2000/svg">
<g clip-path="url(#clip0)">
<path d="M13.7791 28.75C15.5088 31.1888 17.2358 33.37 18.3803 34.7749C18.5469 34.9793 18.703 35.1689 18.8542 35.3516H15.4004C15.0138 35.3516 14.7004 35.665 14.7004 36.0516C14.7004 36.4382 15.0138 36.7516 15.4004 36.7516H26.6003C26.9869 36.7516 27.3003 36.4382 27.3003 36.0516C27.3003 35.665 26.9869 35.3516 26.6003 35.3516H23.1465C23.2977 35.1689 23.4538 34.9792 23.6212 34.7749C24.7649 33.3748 26.4912 31.1888 28.2216 28.75C29.9384 26.3788 31.4837 23.8882 32.8458 21.2971C34.2752 18.49 35.0004 16.1598 35.0004 14.3706C35.0052 10.6528 33.5299 7.08608 30.9005 4.45779C30.7249 4.27568 30.4647 4.20251 30.2199 4.26641C29.9751 4.33031 29.7838 4.52128 29.7196 4.76598C29.6553 5.01068 29.7281 5.27097 29.91 5.44684C32.2767 7.81296 33.6046 11.0238 33.6004 14.3705C33.6004 15.9371 32.927 18.0539 31.5984 20.6614C30.2671 23.1925 28.7568 25.6254 27.0792 27.9415C25.3726 30.3488 23.6667 32.5055 22.5362 33.8915C22.1604 34.3521 21.8222 34.7594 21.5338 35.1039C21.3992 35.2576 21.2048 35.3457 21.0004 35.3457C20.7961 35.3457 20.6017 35.2575 20.4671 35.1039C20.1786 34.7595 19.8406 34.3521 19.4646 33.8915C18.3342 32.5062 16.6282 30.3494 14.9216 27.9415C13.244 25.6254 11.7337 23.1925 10.4024 20.6614C9.07247 18.0539 8.40046 15.9371 8.40046 14.3705C8.40005 9.30019 11.4323 4.72136 16.1005 2.74275C19.2372 1.42746 22.7708 1.42746 25.9076 2.74275C26.1379 2.84037 26.4028 2.80781 26.6025 2.65711C26.8023 2.5065 26.9065 2.26074 26.8759 2.01243C26.8453 1.76412 26.6846 1.551 26.4542 1.45338C19.3258 -1.55324 11.1097 1.7866 8.10088 8.91399C7.37121 10.6404 6.99699 12.4962 7.00051 14.3705C7.00051 16.1597 7.72575 18.49 9.15515 21.3005C10.517 23.8905 12.0624 26.38 13.7791 28.75Z" fill="white"/>
<path d="M21.0001 8.05156C21.3867 8.05156 21.7001 7.7382 21.7001 7.35159C21.7001 6.96497 21.3867 6.65161 21.0001 6.65161C17.6606 6.65153 14.7861 9.01059 14.1345 12.2859C13.4829 15.5613 15.2358 18.8408 18.3211 20.1188C21.4064 21.3969 24.9649 20.3174 26.8203 17.5407C28.6756 14.764 28.3112 11.0634 25.9498 8.70191C25.774 8.51996 25.5138 8.44695 25.269 8.51102C25.0243 8.57509 24.8332 8.76622 24.7691 9.01092C24.7051 9.2557 24.7781 9.51591 24.96 9.6917C26.8492 11.5808 27.1408 14.5412 25.6566 16.7627C24.1724 18.9841 21.3257 19.8477 18.8575 18.8254C16.3892 17.8031 14.9868 15.1796 15.5079 12.5593C16.0289 9.93894 18.3285 8.05164 21.0001 8.05156Z" fill="white"/>
<path d="M41.7365 38.5515L37.4315 30.8515C37.0422 30.1673 36.3139 29.7468 35.5268 29.7518H30.5379C30.1512 29.7518 29.8379 30.0651 29.8379 30.4517C29.8379 30.8383 30.1512 31.1517 30.5379 31.1517H35.5268C35.807 31.1463 36.0684 31.2924 36.2107 31.5339L40.5143 39.2339C40.6315 39.4343 40.6291 39.6827 40.508 39.8808C40.365 40.117 40.1064 40.2585 39.8304 40.2518H2.17028C1.89449 40.2584 1.63626 40.1168 1.49336 39.8808C1.37228 39.6827 1.3699 39.4343 1.48704 39.2339L5.79066 31.5339C5.93266 31.2925 6.19385 31.1464 6.47382 31.1517H11.4627C11.8493 31.1517 12.1627 30.8383 12.1627 30.4517C12.1627 30.0651 11.8493 29.7518 11.4627 29.7518H6.4739C5.6864 29.7466 4.95747 30.1671 4.56782 30.8515L0.263457 38.5515C-0.0954307 39.1855 -0.0871455 39.9631 0.285196 40.5893C0.677471 41.256 1.39681 41.6615 2.17028 41.6519H39.8304C40.6036 41.6613 41.3227 41.2559 41.7148 40.5893C42.0872 39.963 42.0955 39.1855 41.7365 38.5515Z" fill="white"/>
<path d="M34.3003 33.2517H31.5004C31.3621 33.252 31.227 33.2928 31.1119 33.3693L29.0118 34.7694C28.6902 34.984 28.6034 35.4186 28.8179 35.7403C29.0325 36.0619 29.4672 36.1487 29.7889 35.9342L31.7104 34.6518H34.3003C34.687 34.6518 35.0003 34.3384 35.0003 33.9518C35.0003 33.5651 34.687 33.2517 34.3003 33.2517Z" fill="white"/>
<path d="M30.1003 38.1516C30.1003 38.5383 30.4137 38.8516 30.8003 38.8516H36.4004C36.787 38.8516 37.1003 38.5383 37.1003 38.1516C37.1003 37.765 36.787 37.4517 36.4004 37.4517H30.8003C30.4137 37.4517 30.1003 37.765 30.1003 38.1516Z" fill="white"/>
<path d="M12.6002 36.0518C12.9088 36.0522 13.1812 35.8504 13.2709 35.5551C13.3606 35.2598 13.2462 34.9406 12.9895 34.7694L10.8894 33.3693C10.7741 33.2927 10.6387 33.2518 10.5002 33.2517H7.70022C7.31361 33.2517 7.00024 33.5652 7.00024 33.9517C7.00024 34.3383 7.31369 34.6517 7.70022 34.6517H10.2902L12.2138 35.9341C12.3283 36.0105 12.4627 36.0514 12.6002 36.0518Z" fill="white"/>
<path d="M5.60037 37.4517C5.21375 37.4517 4.90039 37.765 4.90039 38.1516C4.90039 38.5383 5.21375 38.8516 5.60037 38.8516H11.2004C11.587 38.8516 11.9004 38.5383 11.9004 38.1516C11.9004 37.765 11.587 37.4517 11.2004 37.4517H5.60037Z" fill="white"/>
</g>
<defs>
<clipPath id="clip0">
<rect width="42" height="42" fill="white"/>
</clipPath>
</defs>
</svg>
