<svg width="70" height="70" viewBox="0 0 70 70" fill="none" xmlns="http://www.w3.org/2000/svg">
<path d="M13.0765 0.400584C12.8222 0.146288 12.4694 0 12.1099 0C11.7503 0 11.3976 0.146288 11.1433 0.400584C10.889 0.654879 10.7427 1.00761 10.7427 1.36718C10.7427 1.72675 10.889 2.07948 11.1433 2.33378C11.3976 2.58807 11.7503 2.73436 12.1099 2.73436C12.4694 2.73436 12.8222 2.58807 13.0765 2.33378C13.3307 2.07948 13.477 1.72675 13.477 1.36718C13.477 1.00761 13.3307 0.654879 13.0765 0.400584Z" fill="#BB669B"/>
<path d="M57.5302 34.2368C57.4976 34.1002 57.4448 33.9718 57.3747 33.8546C56.8049 32.4898 56.1103 31.1743 55.2945 29.9296L54.5422 28.7817C54.5034 28.7225 54.4596 28.6686 54.4137 28.6175C54.6391 28.1249 54.7659 27.578 54.7659 27.0019C54.7659 23.7979 52.1593 21.1914 48.9553 21.1914H45.7381C46.5141 20.1142 46.9729 18.7941 46.9729 17.3681C46.9729 15.416 46.14 13.5482 44.6877 12.2436L31.4803 0.38033C30.9186 -0.124159 30.0542 -0.0780854 29.5496 0.483825C29.0451 1.04546 29.0913 1.90993 29.6531 2.41456L42.8603 14.2777C43.7361 15.0644 44.2384 16.1908 44.2384 17.3681C44.2384 19.4761 42.5233 21.1913 40.4153 21.1913H40.2736C40.1969 21.1913 40.1205 21.1977 40.045 21.2105L26.4175 23.5224C26.4062 23.5244 26.3827 23.5283 26.3555 23.5055C26.3284 23.4827 26.3284 23.4587 26.3284 23.4472V8.74993C26.3284 7.99484 25.7163 7.38275 24.9612 7.38275C24.2061 7.38275 23.594 7.99484 23.594 8.74993V23.4471C23.594 24.2764 23.9574 25.0591 24.591 25.5943C25.2245 26.1295 26.0571 26.3566 26.8747 26.2181L40.3889 23.9256H48.9553C50.6516 23.9256 52.0315 25.3055 52.0315 27.0018C52.0315 27.6426 51.5102 28.1639 50.8694 28.1639H40.5472C40.3689 28.1639 40.1923 28.1987 40.0274 28.2666L25.3499 34.3007C23.2025 35.1837 20.7513 35.1552 18.6247 34.2228C15.4976 32.8517 13.477 29.7594 13.477 26.3448V5.60542C13.477 4.85032 12.8649 4.23824 12.1099 4.23824C11.3548 4.23824 10.7427 4.85032 10.7427 5.60542V26.3448C10.7427 30.4793 12.9917 34.2538 16.5532 36.2413V41.4779C16.5532 42.5663 16.379 43.6419 16.0356 44.6746C13.5381 52.1845 13.3299 60.1866 15.4331 67.8162L15.7582 68.9958C15.9254 69.6021 16.4755 70 17.0755 70C17.1958 70 17.318 69.984 17.4397 69.9505C18.1676 69.7498 18.5949 68.997 18.3944 68.2691L18.0693 67.0895C16.1105 59.9842 16.3045 52.5317 18.6303 45.5376C19.0665 44.226 19.2877 42.8602 19.2877 41.478V37.3279C20.2021 37.5587 21.1412 37.6763 22.0807 37.6763C23.5482 37.6763 25.0162 37.3944 26.3898 36.8297L40.8172 30.8982H50.8693C51.4287 30.8982 51.9605 30.7787 52.4419 30.5656L53.0075 31.4286C53.7224 32.5193 54.3266 33.6535 54.8233 34.817C54.6879 36.6536 53.1514 38.107 51.2808 38.107C48.2827 38.107 45.7697 40.2167 45.1442 43.0289C45.0583 43.0287 44.9725 43.0307 44.8863 43.0376C44.0831 43.1014 42.8875 43.5062 41.7535 45.0723C41.5757 45.3179 41.2282 45.43 40.8079 45.456C41.8061 44.3397 42.4144 42.8678 42.4144 41.2559C42.4144 37.7771 39.584 34.9467 36.1052 34.9467C32.6264 34.9467 29.7962 37.7771 29.7962 41.2559C29.7962 42.3679 30.0865 43.413 30.5937 44.3212C30.5779 44.3722 30.5639 44.4243 30.5539 44.4782C30.5388 44.5598 30.1873 46.5032 30.6671 48.8205C31.3224 51.9852 33.1892 54.3571 36.0654 55.6796C38.147 56.6366 39.9734 57.033 41.5414 57.0328C44.6829 57.0327 46.785 55.4407 47.8094 53.5763C47.9003 53.6946 47.9805 53.8252 48.0119 53.9129C48.2715 54.8447 49.2336 55.3759 50.4111 55.2355C51.891 55.0588 53.5124 53.8597 53.5757 51.6449C53.6273 49.8391 52.519 47.8053 50.8179 46.584C50.001 45.9976 49.1357 45.6665 48.2791 45.5964C48.1739 45.0881 47.9747 44.6471 47.7295 44.311C47.7742 42.3902 49.3495 40.8412 51.2808 40.8412C53.1859 40.8412 54.8948 39.9882 56.0488 38.6455C57.5358 45.4308 55.6601 52.6819 50.6355 57.9856C48.8907 59.8272 47.9298 62.2385 47.9298 64.7753V68.6324C47.9298 69.3875 48.5419 69.9996 49.297 69.9996C50.0521 69.9996 50.6642 69.3875 50.6642 68.6324V64.7754C50.6642 62.9412 51.359 61.1978 52.6203 59.8662C56.3558 55.9234 58.679 50.7725 59.1623 45.3627C59.5008 41.5732 58.927 37.7492 57.5302 34.2368ZM36.1054 37.6812C38.0764 37.6812 39.6801 39.2848 39.6801 41.256C39.6801 43.2271 38.0766 44.8306 36.1054 44.8306C34.1343 44.8306 32.5307 43.2271 32.5307 41.256C32.5307 39.2848 34.1343 37.6812 36.1054 37.6812ZM47.8946 48.3206C48.4317 48.3079 48.9365 48.5995 49.2233 48.8054C50.1564 49.4753 50.8678 50.6883 50.8426 51.567C50.8332 51.898 50.7368 52.1402 50.5477 52.3077C50.4773 52.3702 50.402 52.4159 50.3306 52.4487C49.8953 51.6713 49.0731 50.7393 47.9315 50.6183C47.456 50.5681 46.2628 50.6193 45.4551 52.1807C44.4841 54.0578 41.8077 55.31 37.2077 53.1952C33.9675 51.7053 33.2496 48.7622 33.1538 46.8296C34.035 47.2981 35.0395 47.5648 36.1054 47.5648C36.4629 47.5648 36.8132 47.5334 37.1547 47.476C37.8198 47.7501 42.0344 49.3465 43.9683 46.676C44.3641 46.1294 44.7883 45.7883 45.1032 45.7633C45.2856 45.7495 45.4361 45.8483 45.5362 45.9425C45.5904 46.0359 45.7138 46.3993 45.5292 46.9078C45.1067 48.0717 43.4242 49.1334 40.9131 49.8211C40.1848 50.0206 39.7561 50.7725 39.9555 51.5008C40.1219 52.1082 40.6726 52.5072 41.2733 52.5072C41.3929 52.5072 41.5143 52.4913 41.6352 52.4584C45.5101 51.3973 47.1922 49.7485 47.8946 48.3206Z" fill="#BB669B"/>
</svg>
