<svg width="42" height="42" viewBox="0 0 42 42" fill="none" xmlns="http://www.w3.org/2000/svg">
<path d="M35.8493 6.1507C31.8828 2.18433 26.6093 0 21 0C15.3907 0 10.1172 2.18433 6.1507 6.1507C2.18425 10.1171 0 15.3907 0 21C0 26.6093 2.18433 31.8828 6.1507 35.8493C10.1171 39.8158 15.3907 42 21 42C26.6093 42 31.8828 39.8157 35.8493 35.8493C39.8158 31.8829 42 26.6093 42 21C42 15.3907 39.8157 10.1172 35.8493 6.1507ZM34.9212 34.9212C31.2027 38.6397 26.2587 40.6875 21 40.6875C15.7413 40.6875 10.7973 38.6397 7.0788 34.9212C3.36033 31.2027 1.3125 26.2587 1.3125 21C1.3125 15.7413 3.36033 10.7973 7.0788 7.0788C10.7973 3.36033 15.7413 1.3125 21 1.3125C26.2587 1.3125 31.2027 3.36033 34.9212 7.0788C38.6397 10.7973 40.6875 15.7413 40.6875 21C40.6875 26.2587 38.6397 31.2027 34.9212 34.9212Z" fill="white"/>
<path d="M3.9375 21C3.9375 11.5918 11.5918 3.9375 21 3.9375C24.3935 3.9375 27.6713 4.93098 30.4791 6.81056C30.7803 7.0122 31.1879 6.93148 31.3895 6.63026C31.5911 6.32912 31.5104 5.92151 31.2092 5.71987C28.1846 3.69518 24.6543 2.625 21 2.625C16.0918 2.625 11.4775 4.53633 8.00691 8.00691C4.53633 11.4775 2.625 16.0918 2.625 21C2.625 25.5281 4.28646 29.8784 7.30341 33.2496C7.43302 33.3944 7.6125 33.4682 7.79264 33.4682C7.94842 33.4682 8.10485 33.4131 8.23003 33.3009C8.50008 33.0592 8.52313 32.6443 8.28138 32.3743C5.48026 29.2441 3.9375 25.2047 3.9375 21Z" fill="white"/>
<path d="M36.2801 10.7908C36.0784 10.4896 35.6708 10.4089 35.3697 10.6105C35.0686 10.8121 34.9878 11.2197 35.1894 11.5209C37.0689 14.3286 38.0624 17.6065 38.0624 20.9998C38.0624 30.4081 30.4081 38.0623 20.9999 38.0623C17.0966 38.0623 13.2811 36.7105 10.2563 34.256C9.97487 34.0276 9.5616 34.0706 9.33322 34.3521C9.10485 34.6335 9.14783 35.0468 9.42928 35.2752C12.6872 37.9189 16.7963 39.3748 20.9999 39.3748C25.908 39.3748 30.5224 37.4635 33.993 33.9929C37.4635 30.5224 39.3749 25.908 39.3749 20.9998C39.3749 17.3456 38.3047 13.8153 36.2801 10.7908Z" fill="white"/>
<path d="M32.3744 8.28152C32.8156 8.67633 33.241 9.09888 33.6388 9.53725C33.7683 9.67998 33.9463 9.7525 34.125 9.7525C34.2823 9.7525 34.4402 9.69623 34.5658 9.5822C34.8342 9.33865 34.8544 8.92357 34.6108 8.65517C34.1826 8.18332 33.7246 7.72854 33.2496 7.30346C32.9796 7.06179 32.5647 7.08476 32.323 7.35481C32.0814 7.62486 32.1042 8.03977 32.3744 8.28152Z" fill="white"/>
<path d="M21 8.53125C21.3624 8.53125 21.6562 8.23741 21.6562 7.875V5.90625C21.6562 5.54384 21.3624 5.25 21 5.25C20.6376 5.25 20.3438 5.54384 20.3438 5.90625V7.875C20.3438 8.23741 20.6376 8.53125 21 8.53125Z" fill="white"/>
<path d="M20.3438 34.125V36.0938C20.3438 36.4562 20.6376 36.75 21 36.75C21.3624 36.75 21.6562 36.4562 21.6562 36.0938V34.125C21.6562 33.7626 21.3624 33.4688 21 33.4688C20.6376 33.4688 20.3438 33.7626 20.3438 34.125Z" fill="white"/>
<path d="M8.53125 21C8.53125 20.6376 8.23741 20.3438 7.875 20.3438H5.90625C5.54384 20.3438 5.25 20.6376 5.25 21C5.25 21.3624 5.54384 21.6562 5.90625 21.6562H7.875C8.23741 21.6562 8.53125 21.3624 8.53125 21Z" fill="white"/>
<path d="M33.4688 21C33.4688 21.3624 33.7626 21.6562 34.125 21.6562H36.0938C36.4562 21.6562 36.75 21.3624 36.75 21C36.75 20.6376 36.4562 20.3438 36.0938 20.3438H34.125C33.7626 20.3438 33.4688 20.6376 33.4688 21Z" fill="white"/>
<path d="M15.0057 9.30543L14.0213 7.60041C13.8401 7.28648 13.4387 7.1791 13.1248 7.36022C12.811 7.54143 12.7034 7.94281 12.8847 8.25666L13.869 9.96168C13.9906 10.1722 14.2112 10.2899 14.438 10.2899C14.5493 10.2899 14.6622 10.2615 14.7656 10.2019C15.0793 10.0207 15.1869 9.61928 15.0057 9.30543Z" fill="white"/>
<path d="M28.1307 32.0383C27.9495 31.7245 27.548 31.6171 27.2342 31.7982C26.9204 31.9794 26.8128 32.3807 26.994 32.6946L27.9784 34.3996C28.1 34.6101 28.3206 34.7278 28.5474 34.7278C28.6587 34.7278 28.7716 34.6994 28.8749 34.6398C29.1888 34.4586 29.2963 34.0572 29.1151 33.7434L28.1307 32.0383Z" fill="white"/>
<path d="M7.92913 29.2032C8.04044 29.2032 8.15332 29.1748 8.25668 29.1152L9.9617 28.1308C10.2755 27.9496 10.3831 27.5482 10.2019 27.2344C10.0207 26.9205 9.61922 26.8132 9.30545 26.9942L7.60043 27.9786C7.28658 28.1598 7.17903 28.5612 7.36024 28.875C7.48173 29.0855 7.70231 29.2032 7.92913 29.2032Z" fill="white"/>
<path d="M32.3671 15.0938C32.4784 15.0938 32.5913 15.0655 32.6947 15.0058L34.3997 14.0215C34.7135 13.8402 34.8211 13.4389 34.6399 13.125C34.4587 12.8112 34.0573 12.7038 33.7434 12.8848L32.0384 13.8692C31.7246 14.0504 31.617 14.4518 31.7982 14.7656C31.9198 14.9761 32.1404 15.0938 32.3671 15.0938Z" fill="white"/>
<path d="M28.8749 7.36005C28.561 7.17876 28.1596 7.2863 27.9784 7.60024L26.994 9.30526C26.8128 9.61911 26.9204 10.0205 27.2342 10.2017C27.3376 10.2614 27.4504 10.2897 27.5618 10.2897C27.7886 10.2897 28.0092 10.172 28.1307 9.96151L29.1151 8.25649C29.2962 7.94264 29.1887 7.54126 28.8749 7.36005Z" fill="white"/>
<path d="M14.7655 31.7982C14.4516 31.617 14.0502 31.7246 13.869 32.0384L12.8847 33.7434C12.7034 34.0573 12.811 34.4587 13.1248 34.6399C13.2282 34.6996 13.341 34.7279 13.4524 34.7279C13.6792 34.7279 13.8998 34.6102 14.0214 34.3997L15.0057 32.6947C15.1869 32.3808 15.0793 31.9794 14.7655 31.7982Z" fill="white"/>
<path d="M32.0384 28.1307L33.7434 29.1151C33.8468 29.1748 33.9596 29.2031 34.071 29.2031C34.2978 29.2031 34.5184 29.0854 34.6399 28.8749C34.8211 28.561 34.7136 28.1596 34.3997 27.9784L32.6947 26.9941C32.3809 26.8128 31.9795 26.9204 31.7983 27.2343C31.617 27.5481 31.7245 27.9495 32.0384 28.1307Z" fill="white"/>
<path d="M9.96169 13.8691L8.25668 12.8847C7.94283 12.7034 7.54145 12.811 7.36024 13.1249C7.17903 13.4387 7.28658 13.8401 7.60043 14.0213L9.30544 15.0057C9.4088 15.0654 9.5216 15.0937 9.633 15.0937C9.85981 15.0937 10.0804 14.976 10.202 14.7655C10.3831 14.4517 10.2755 14.0503 9.96169 13.8691Z" fill="white"/>
<path d="M25.5685 29.5682C25.6798 29.5682 25.7927 29.5399 25.896 29.4802C26.2099 29.299 26.3174 28.8976 26.1362 28.5838L22.4957 22.2781C22.7903 21.9338 22.9688 21.4875 22.9688 21C22.9688 20.1445 22.42 19.415 21.6563 19.1441V10.5C21.6563 10.1376 21.3624 9.84375 21 9.84375C20.6376 9.84375 20.3438 10.1376 20.3438 10.5V19.1441C19.58 19.415 19.0312 20.1445 19.0312 21C19.0312 22.0856 19.9144 22.9688 21 22.9688C21.1228 22.9688 21.2429 22.9569 21.3595 22.9353L24.9996 29.24C25.1212 29.4505 25.3418 29.5682 25.5685 29.5682ZM20.3438 21C20.3438 20.6382 20.6382 20.3438 21 20.3438C21.3618 20.3438 21.6563 20.6382 21.6563 21C21.6563 21.3618 21.3618 21.6562 21 21.6562C20.6382 21.6562 20.3438 21.3618 20.3438 21Z" fill="white"/>
</svg>
