<svg width="70" height="70" viewBox="0 0 70 70" fill="none" xmlns="http://www.w3.org/2000/svg">
<g clip-path="url(#clip0)">
<path d="M39.6782 31.4992C40.3226 31.4992 40.8449 30.9769 40.8449 30.3325C40.8449 29.6881 40.3226 29.1658 39.6782 29.1658C39.0338 29.1658 38.5115 29.6881 38.5115 30.3325C38.5115 30.9769 39.0338 31.4992 39.6782 31.4992Z" fill="#252525"/>
<path d="M26.8442 45.5C27.4886 45.5 28.0109 44.9776 28.0109 44.3332C28.0109 43.6889 27.4886 43.1665 26.8442 43.1665C26.1999 43.1665 25.6775 43.6889 25.6775 44.3332C25.6775 44.9776 26.1999 45.5 26.8442 45.5Z" fill="#252525"/>
<path d="M50.1787 49.0002C50.8231 49.0002 51.3454 48.4778 51.3454 47.8335C51.3454 47.1891 50.8231 46.6667 50.1787 46.6667C49.5343 46.6667 49.012 47.1891 49.012 47.8335C49.012 48.4778 49.5343 49.0002 50.1787 49.0002Z" fill="#252525"/>
<path d="M58.3457 37.3328C58.99 37.3328 59.5124 36.8105 59.5124 36.1661C59.5124 35.5218 58.99 34.9994 58.3457 34.9994C57.7013 34.9994 57.179 35.5218 57.179 36.1661C57.179 36.8105 57.7013 37.3328 58.3457 37.3328Z" fill="#252525"/>
<path d="M45.5117 26.8324C46.1561 26.8324 46.6784 26.31 46.6784 25.6656C46.6784 25.0213 46.1561 24.4989 45.5117 24.4989C44.8673 24.4989 44.345 25.0213 44.345 25.6656C44.345 26.31 44.8673 26.8324 45.5117 26.8324Z" fill="#252525"/>
<path d="M62.4141 51.65C61.0863 51.286 59.7388 51.237 58.4134 51.5018C57.9945 51.5858 57.5826 51.496 57.2851 51.2556L55.6389 49.9349C55.1757 49.5639 55.031 48.9082 55.2877 48.3435C55.7556 47.3144 56.1429 46.2387 56.4381 45.1478C56.5874 44.5971 56.9655 44.1339 57.4788 43.8749C57.9432 43.6393 58.453 43.6077 58.9115 43.7863C61.0828 44.6263 63.5189 44.491 65.5922 43.4246C69.3677 41.4785 71.035 36.7357 69.3082 32.8505C68.411 30.8356 66.7823 29.299 64.7195 28.5232C62.6567 27.7473 60.4178 27.8301 58.4169 28.7542C58.0517 28.9233 57.6538 29.1672 57.2046 29.4962C56.7006 29.8637 56.1079 30.0037 55.5456 29.8882C54.9855 29.7751 54.5013 29.4227 54.1875 28.8953C53.5178 27.7753 52.7116 26.7731 51.8995 25.7639C51.1575 24.841 51.0315 23.5599 51.5764 22.5029L53.3019 19.1544C53.792 18.2011 54.674 17.5524 55.6051 17.4603C56.4696 17.3751 57.3271 17.1406 58.152 16.7626C60.7748 15.5632 62.6136 13.1084 62.9496 10.3584C63.2658 7.78462 62.3896 5.2785 60.545 3.48057C58.7004 1.68265 56.1744 0.871776 53.5971 1.2568C50.1448 1.77015 47.3446 4.53529 46.7881 7.98063C46.5314 9.56505 46.7309 11.1658 47.3645 12.6067C47.7833 13.5622 47.7845 14.5761 47.368 15.3858L46.0169 18.0098C45.325 19.3504 43.7651 20.0411 42.3954 19.6129C41.1598 19.2267 39.1006 18.9653 37.5896 18.8137C37.1673 18.7717 36.8161 18.4648 36.7181 18.0541L35.3892 12.4492C35.3157 12.14 35.409 11.8075 35.6436 11.5356C37.0495 9.91156 37.6223 7.76362 37.2151 5.63668C36.6901 2.91355 34.5247 0.708435 31.8272 0.149574C29.7248 -0.284448 27.5686 0.227744 25.9271 1.56598C24.2855 2.90304 23.3439 4.88298 23.3439 6.99708C23.3439 9.89639 25.1757 12.525 27.9035 13.5366C28.2862 13.6789 28.551 13.9473 28.628 14.2739L29.6921 18.7682C29.8088 19.257 29.5252 19.7587 29.0352 19.9361C27.4636 20.5019 25.9644 21.2556 24.5772 22.175C24.0486 22.5262 23.3323 22.511 22.8737 22.1412C22.2717 21.6535 22.3021 20.9126 22.5086 20.4261C23.3754 18.3913 23.5714 16.1477 23.0744 13.9356C22.1784 9.95473 18.8812 6.77307 14.8677 6.02053C11.3523 5.3555 7.9035 6.41605 5.41138 8.91518C2.91692 11.4143 1.8692 14.8643 2.53773 18.3797C3.33344 22.5705 6.69244 25.8957 10.8973 26.6576C12.6882 26.9784 14.4453 26.8606 16.1254 26.3087C16.6329 26.1395 17.2175 26.3297 17.5745 26.7766L18.0412 27.3564C18.4052 27.8103 18.446 28.4298 18.1438 28.9362C16.6481 31.4435 15.7089 34.1829 15.353 37.0764C15.276 37.6995 14.7965 38.172 14.1898 38.2268L11.9765 38.4252C11.4585 38.4765 11.0653 38.1615 10.8728 37.9725C9.77609 36.9026 8.37952 36.2819 6.83361 36.1769C4.23298 36.0042 1.79453 37.4276 0.67914 39.7191C-0.181903 41.4878 -0.212238 43.5086 0.598636 45.2657C1.40951 47.0228 2.94609 48.3085 4.81751 48.7938C7.53248 49.4985 10.3606 48.3633 11.8482 45.9704C12.057 45.6344 12.4677 45.4092 12.9461 45.3648L14.849 45.1945C15.4417 45.1338 16.0017 45.5153 16.1919 46.1069C17.0098 48.6445 18.2932 50.9803 20.0094 53.0512C20.2031 53.2834 20.1903 53.6346 19.9803 53.8679C19.7773 54.0931 19.4599 54.0919 19.2312 54.0231C18.2523 53.7104 17.2291 53.6007 16.1884 53.7011C12.7186 54.0301 9.86827 56.7707 9.40974 60.2161C9.08306 62.6825 9.9231 65.0685 11.7187 66.7626C13.5143 68.4578 15.9481 69.1602 18.4122 68.69C21.1155 68.1743 23.3789 66.1244 24.1781 63.4666C24.5433 62.2497 24.6063 61.0165 24.3672 59.8007C24.3322 59.6234 24.3905 59.4297 24.5212 59.285L25.437 58.2677C25.6307 58.0518 25.9469 57.9888 26.1849 58.1195C26.7881 58.4485 27.417 58.7507 28.0517 59.0179C28.8264 59.3434 29.2907 60.1881 29.2079 61.1168C29.1356 61.9207 29.1857 62.7397 29.3572 63.5471C30.0759 66.9609 33.0044 69.5965 36.4789 69.9547C36.7613 69.9827 37.0436 69.9979 37.326 69.9979C39.3456 69.9979 41.3092 69.2547 42.8131 67.8978C44.5282 66.3519 45.5117 64.1398 45.5117 61.832C45.5117 61.321 45.4627 60.8064 45.367 60.3001C45.1839 59.3504 45.5631 58.4602 46.3331 58.0331C47.5442 57.3611 48.691 56.5677 49.7434 55.6752C50.1249 55.352 50.5613 55.2097 50.9078 55.2983C51.4328 55.4302 51.6919 55.7394 51.8155 55.9739C51.9905 56.3052 52.0139 56.7066 51.8797 57.0729C51.3558 58.4998 51.2147 60.0621 51.4713 61.5893C52.0979 65.2995 55.143 68.2443 58.8777 68.7507C61.574 69.1135 64.2248 68.2548 66.1639 66.3869C68.103 64.5201 69.0656 61.9055 68.8042 59.2127C68.4577 55.6437 65.8897 52.6032 62.4141 51.65ZM64.5457 64.708C63.1223 66.0765 61.1633 66.7089 59.1916 66.4394C56.4591 66.0695 54.2307 63.9158 53.7721 61.2031C53.5785 60.0597 53.6788 58.942 54.0685 57.8791C54.4313 56.8921 54.3613 55.8024 53.8783 54.8865C53.3894 53.9613 52.5377 53.3056 51.4783 53.0372C50.3828 52.7642 49.2021 53.0734 48.2313 53.8983C47.2968 54.6928 46.2771 55.3975 45.2002 55.9949C43.5574 56.9049 42.7022 58.8137 43.0733 60.7399C43.1421 61.1016 43.1771 61.4691 43.1771 61.8343C43.1771 63.4829 42.4736 65.0627 41.2497 66.1675C40.0094 67.2864 38.4017 67.8173 36.7181 67.6353C34.2411 67.3798 32.1539 65.5025 31.6405 63.0676C31.518 62.4854 31.4807 61.9008 31.532 61.3268C31.7035 59.3819 30.6698 57.591 28.9559 56.8699C28.3924 56.6331 27.8358 56.3647 27.3003 56.0742C26.8616 55.835 26.3844 55.7184 25.9096 55.7184C25.094 55.7184 24.2878 56.0614 23.7033 56.7089L22.7874 57.7263C22.1679 58.4135 21.9019 59.3585 22.078 60.2546C22.2449 61.0946 22.1994 61.9498 21.9439 62.798C21.392 64.631 19.8344 66.0462 17.9758 66.4009C16.2596 66.7276 14.5655 66.2434 13.3229 65.0685C12.0804 63.8948 11.4982 62.2392 11.7245 60.5253C12.0372 58.1836 14.051 56.2492 16.4101 56.0252C17.1381 55.9587 17.8475 56.031 18.5242 56.248C19.7038 56.6226 20.9277 56.3099 21.7152 55.4325C22.6976 54.344 22.7361 52.6802 21.8062 51.5636C20.2813 49.7237 19.1414 47.6481 18.4157 45.394C17.8883 43.7583 16.3296 42.728 14.6437 42.8727L12.7396 43.0431C11.5343 43.1516 10.461 43.7863 9.86827 44.7406C8.92089 46.2621 7.1253 46.9831 5.40438 46.5374C4.21315 46.2282 3.23427 45.4092 2.71858 44.2903C2.19588 43.1551 2.21688 41.895 2.77924 40.7423C3.48395 39.2955 5.04036 38.3808 6.67844 38.5068C7.66316 38.5733 8.54987 38.9665 9.24407 39.6432C10.0596 40.4401 11.1412 40.8473 12.1854 40.7504L14.3998 40.5521C16.1126 40.3993 17.4578 39.0879 17.6713 37.3634C17.9875 34.7931 18.8205 32.3617 20.1494 30.1344C20.944 28.8032 20.8285 27.1009 19.8624 25.8969L19.3969 25.317C18.4332 24.1164 16.8289 23.6241 15.3974 24.0931C14.0895 24.5248 12.7139 24.6146 11.3138 24.3615C8.05051 23.7711 5.44638 21.1926 4.83035 17.9445C4.30882 15.198 5.1232 12.5075 7.06229 10.5638C9.00372 8.61883 11.6884 7.80329 14.4372 8.31432C17.5476 8.89884 20.1039 11.3641 20.7981 14.4501C21.1867 16.1792 21.0362 17.9293 20.3618 19.5114C19.6793 21.111 20.0981 22.896 21.4037 23.9543C22.6509 24.9681 24.4885 25.037 25.8664 24.1223C27.0985 23.3056 28.4297 22.637 29.8263 22.133C31.434 21.5531 32.3534 19.8766 31.9637 18.2326L30.8985 13.7384C30.6418 12.6545 29.8263 11.7632 28.7155 11.3513C26.8989 10.6769 25.6774 8.92801 25.6774 6.99942C25.6774 5.58885 26.3051 4.26928 27.4006 3.3779C28.5125 2.47486 29.9173 2.13767 31.3547 2.43752C33.1409 2.80737 34.576 4.27161 34.9237 6.08004C35.2002 7.51861 34.8303 8.91518 33.8795 10.0107C33.1584 10.8449 32.8749 11.9592 33.1211 12.9905L34.45 18.5943C34.7767 19.9746 35.9457 20.9966 37.3586 21.139C39.3409 21.3373 40.8833 21.587 41.7012 21.8437C44.184 22.6137 46.8698 21.4551 48.0925 19.082L49.4436 16.4581C50.1856 15.0195 50.2066 13.2741 49.5031 11.6721C49.0504 10.6431 48.9092 9.49621 49.0936 8.35515C49.4902 5.90269 51.4842 3.93443 53.9425 3.56808C55.7917 3.28923 57.6002 3.87143 58.9186 5.15482C60.2358 6.43822 60.8611 8.23264 60.636 10.0772C60.3968 12.0292 59.0737 13.7793 57.1825 14.6438C56.5921 14.9133 55.9854 15.0802 55.3764 15.1408C53.6415 15.3123 52.0909 16.4149 51.2287 18.088L49.5031 21.4365C48.5359 23.3126 48.7634 25.5865 50.1144 27.2689C50.8775 28.2175 51.5974 29.1135 52.1842 30.0947C52.8411 31.1915 53.869 31.9312 55.08 32.1762C56.2958 32.427 57.5418 32.1412 58.5825 31.3805C58.9804 31.0876 59.2429 30.9441 59.3946 30.8729C60.825 30.2137 62.4257 30.1542 63.897 30.7073C65.3705 31.2615 66.5349 32.3594 67.1743 33.7979C68.4099 36.5724 67.2186 39.9594 64.5235 41.3501C63.0429 42.112 61.3033 42.2053 59.7528 41.6091C58.6677 41.1903 57.487 41.2533 56.4241 41.7923C55.3239 42.35 54.5083 43.3499 54.1875 44.5365C53.9238 45.5072 53.5796 46.4616 53.1643 47.3763C52.4631 48.914 52.8807 50.7143 54.1781 51.7562L55.8244 53.0757C56.6609 53.7489 57.7717 54.0114 58.8684 53.7898C59.8403 53.5973 60.8238 53.6334 61.7957 53.9006V53.9018C64.303 54.589 66.2304 56.8676 66.4813 59.4402C66.6726 61.419 65.9679 63.3382 64.5457 64.708Z" fill="#252525"/>
<path d="M37.3446 43.1665C33.4839 43.1665 30.3442 46.3062 30.3442 50.1669C30.3442 54.0275 33.4839 57.1672 37.3446 57.1672C41.2053 57.1672 44.3449 54.0275 44.3449 50.1669C44.3449 46.3062 41.2041 43.1665 37.3446 43.1665ZM37.3446 54.8338C34.7708 54.8338 32.6777 52.7407 32.6777 50.1669C32.6777 47.5931 34.7708 45.5 37.3446 45.5C39.9184 45.5 42.0115 47.5931 42.0115 50.1669C42.0115 52.7407 39.9184 54.8338 37.3446 54.8338Z" fill="#252525"/>
<path d="M32.6778 33.8327C32.6778 31.2589 30.5847 29.1658 28.0109 29.1658C25.4371 29.1658 23.344 31.2589 23.344 33.8327C23.344 36.4065 25.4371 38.4996 28.0109 38.4996C30.5847 38.4996 32.6778 36.4065 32.6778 33.8327ZM28.0109 36.1661C26.724 36.1661 25.6774 35.1196 25.6774 33.8327C25.6774 32.5458 26.724 31.4992 28.0109 31.4992C29.2978 31.4992 30.3443 32.5458 30.3443 33.8327C30.3443 35.1196 29.2966 36.1661 28.0109 36.1661Z" fill="#252525"/>
<path d="M47.8451 32.666C45.2713 32.666 43.1782 34.7591 43.1782 37.3329C43.1782 39.9067 45.2713 41.9998 47.8451 41.9998C50.4189 41.9998 52.512 39.9067 52.512 37.3329C52.512 34.7591 50.4189 32.666 47.8451 32.666ZM47.8451 39.6664C46.5582 39.6664 45.5117 38.6198 45.5117 37.3329C45.5117 36.046 46.5582 34.9995 47.8451 34.9995C49.132 34.9995 50.1786 36.046 50.1786 37.3329C50.1786 38.6198 49.1309 39.6664 47.8451 39.6664Z" fill="#252525"/>
</g>
<defs>
<clipPath id="clip0">
<rect width="70" height="70" fill="white"/>
</clipPath>
</defs>
</svg>
